<svg width="174" height="157" viewBox="0 0 174 157" fill="none" xmlns="http://www.w3.org/2000/svg">
<path d="M122.887 0C137.387 0 149.533 5.3787 159.323 16.1361C169.113 26.8935 174.006 39.6861 174 54.5139C174 57.1305 173.855 59.7123 173.565 62.2592C173.275 64.8061 172.767 67.3123 172.042 69.7778H117.667L102.877 47.5361C102.152 46.3731 101.138 45.4282 99.8325 44.7014C98.5275 43.9745 97.15 43.6111 95.7 43.6111C93.815 43.6111 92.1127 44.1926 90.5931 45.3555C89.0735 46.5185 88.0208 47.9722 87.435 49.7166L75.69 85.0416L68.0775 73.7028C67.3525 72.5398 66.3375 71.5949 65.0325 70.868C63.7275 70.1412 62.35 69.7778 60.9 69.7778H1.9575C1.2325 67.3065 0.725 64.8003 0.435 62.2592C0.145 59.7181 0 57.209 0 54.7319C0 39.7588 4.8575 26.8935 14.5725 16.1361C24.2875 5.3787 36.395 0 50.895 0C57.855 0 64.4177 1.38102 70.5831 4.14305C76.7485 6.90509 82.2208 10.7574 87 15.7C91.64 10.7574 97.0427 6.90509 103.208 4.14305C109.373 1.38102 115.933 0 122.887 0ZM87 157C84.39 157 81.8902 156.529 79.5006 155.587C77.111 154.645 74.9708 153.226 73.08 151.331L14.79 92.6736C13.92 91.8014 13.1225 90.9291 12.3975 90.0569C11.6725 89.1847 10.9475 88.2398 10.2225 87.2222H56.115L70.905 109.464C71.63 110.627 72.645 111.572 73.95 112.299C75.255 113.025 76.6325 113.389 78.0825 113.389C79.9675 113.389 81.7075 112.807 83.3025 111.644C84.8975 110.481 85.985 109.028 86.565 107.283L98.31 71.9583L105.705 83.2972C106.575 84.4602 107.662 85.4051 108.967 86.1319C110.272 86.8588 111.65 87.2222 113.1 87.2222H163.56L161.385 89.8389L159.21 92.4555L100.702 151.331C98.8175 153.22 96.715 154.639 94.395 155.587C92.075 156.535 89.61 157.006 87 157Z" fill="#24819E"/>
</svg>
