<svg width="43" height="56" viewBox="0 0 43 56" fill="none" xmlns="http://www.w3.org/2000/svg">
<path fill-rule="evenodd" clip-rule="evenodd" d="M11.9183 9.26C11.9183 6.8041 12.8939 4.44878 14.6305 2.71219C16.3671 0.975605 18.7224 0 21.1783 0C23.6342 0 25.9895 0.975605 27.7261 2.71219C29.4627 4.44878 30.4383 6.8041 30.4383 9.26C30.4383 11.7159 29.4627 14.0712 27.7261 15.8078C25.9895 17.5444 23.6342 18.52 21.1783 18.52C18.7224 18.52 16.3671 17.5444 14.6305 15.8078C12.8939 14.0712 11.9183 11.7159 11.9183 9.26ZM2.96231 24.428C4.84729 22.6386 7.34723 21.6409 9.94631 21.6409C12.5454 21.6409 15.0453 22.6386 16.9303 24.428L16.9703 24.468L21.1783 28.676L25.3903 24.468L25.4303 24.428C27.3149 22.6409 29.8131 21.6447 32.4103 21.6447C35.0075 21.6447 37.5057 22.6409 39.3903 24.428C40.3264 25.3158 41.0721 26.3847 41.5821 27.5698C42.092 28.7549 42.3556 30.0313 42.3567 31.3214C42.3579 32.6116 42.0965 33.8884 41.5886 35.0744C41.0807 36.2604 40.3369 37.3306 39.4023 38.22L22.5703 54.58C22.197 54.9429 21.6969 55.1459 21.1763 55.1459C20.6557 55.1459 20.1556 54.9429 19.7823 54.58L2.95431 38.22C2.02013 37.3309 1.2765 36.2611 0.768633 35.0757C0.260762 33.8903 -0.00074667 32.6139 1.60127e-06 31.3243C0.000749872 30.0346 0.26374 28.7586 0.772986 27.5738C1.28223 26.3889 2.0271 25.316 2.96231 24.428Z" fill="#21647D"/>
</svg> 