<svg width="22" height="16" viewBox="0 0 28 21" fill="none" xmlns="http://www.w3.org/2000/svg">
  <path d="M14.2138 3.5C8.49917 3.5 3.59042 7.23333 1.57417 12.8333C3.59042 18.4333 8.49917 22.1667 14.2138 22.1667C19.9284 22.1667 24.8372 18.4333 26.8534 12.8333C24.8372 7.23333 19.9284 3.5 14.2138 3.5ZM14.2138 18.6667C11.0784 18.6667 8.54292 16.1 8.54292 12.8333C8.54292 9.56667 11.0784 7 14.2138 7C17.3492 7 19.8846 9.56667 19.8846 12.8333C19.8846 16.1 17.3492 18.6667 14.2138 18.6667ZM14.2138 9.33333C12.3334 9.33333 10.8055 10.9 10.8055 12.8333C10.8055 14.7667 12.3334 16.3333 14.2138 16.3333C16.0942 16.3333 17.6221 14.7667 17.6221 12.8333C17.6221 10.9 16.0942 9.33333 14.2138 9.33333Z" fill="white"/>
</svg> 