<svg width="29" height="21" viewBox="0 0 29 21" fill="none" xmlns="http://www.w3.org/2000/svg">
<path d="M13.9941 6.59878L18.0902 10.0741V9.89817C18.0902 9.02311 17.6818 8.1839 16.9548 7.56515C16.2279 6.94639 15.2419 6.59878 14.2137 6.59878H13.9941ZM8.4378 7.47861L10.4406 9.1833C10.376 9.41426 10.3373 9.64521 10.3373 9.89817C10.3373 10.7732 10.7457 11.6124 11.4727 12.2312C12.1996 12.8499 13.1856 13.1976 14.2137 13.1976C14.498 13.1976 14.7823 13.1646 15.0537 13.1096L17.0565 14.8143C16.1908 15.1772 15.2346 15.3971 14.2137 15.3971C12.5002 15.3971 10.8569 14.8178 9.64528 13.7865C8.43364 12.7553 7.75295 11.3566 7.75295 9.89817C7.75295 9.02933 8.01139 8.21548 8.4378 7.47861ZM1.29216 1.39674L4.23828 3.90428L4.81975 4.39919C2.68769 5.82892 1.00788 7.69857 0 9.89817C2.23544 14.7263 7.75295 18.1466 14.2137 18.1466C16.2166 18.1466 18.129 17.8167 19.8734 17.2228L20.429 17.6847L24.2021 20.8961L25.8432 19.4994L2.9332 0M14.2137 4.39919C15.9273 4.39919 17.5706 4.97854 18.7822 6.0098C19.9939 7.04106 20.6745 8.43975 20.6745 9.89817C20.6745 10.602 20.5066 11.2839 20.2094 11.8998L23.9954 15.1222C25.9336 13.7475 27.4842 11.9438 28.4275 9.89817C26.1921 5.07006 20.6745 1.64969 14.2137 1.64969C12.4047 1.64969 10.6732 1.92464 9.04511 2.41955L11.8491 4.78411C12.5856 4.54216 13.3738 4.39919 14.2137 4.39919Z" fill="white"/>
</svg>
