<svg width="30" height="30" viewBox="0 0 30 30" fill="none" xmlns="http://www.w3.org/2000/svg">
<path d="M14 15C12.625 15 11.4479 14.5104 10.4688 13.5312C9.48958 12.5521 9 11.375 9 10C9 8.625 9.48958 7.44792 10.4688 6.46875C11.4479 5.48958 12.625 5 14 5C15.375 5 16.5521 5.48958 17.5312 6.46875C18.5104 7.44792 19 8.625 19 10C19 11.375 18.5104 12.5521 17.5312 13.5312C16.5521 14.5104 15.375 15 14 15ZM4 25V21.5C4 20.7917 4.1825 20.1408 4.5475 19.5475C4.9125 18.9542 5.39667 18.5008 6 18.1875C7.29167 17.5417 8.60417 17.0575 9.9375 16.735C11.2708 16.4125 12.625 16.2508 14 16.25C15.375 16.2492 16.7292 16.4108 18.0625 16.735C19.3958 17.0592 20.7083 17.5433 22 18.1875C22.6042 18.5 23.0887 18.9533 23.4538 19.5475C23.8188 20.1417 24.0008 20.7925 24 21.5V25H4Z" fill="white"/>
</svg>
