<svg width="124" height="107" viewBox="0 0 124 107" fill="none" xmlns="http://www.w3.org/2000/svg">
<path fill-rule="evenodd" clip-rule="evenodd" d="M111.11 57.7208C105.665 57.7208 101.049 61.2909 99.4361 66.1365H89.4872L82.2257 44.3526C81.6686 42.6814 80.0998 41.5586 78.3383 41.5586C78.3096 41.5586 78.2809 41.5586 78.2525 41.5596C76.4561 41.5965 74.894 42.7949 74.3994 44.5149L63.0097 84.1112L49.6053 4.00452C49.286 2.0969 47.6981 0.338989 45.5645 0.338989C43.4309 0.338989 42.0586 1.81204 41.5895 3.68879L25.9765 66.1365H0.501648V74.2971H29.178C31.0594 74.2971 32.6985 73.0212 33.153 71.2026L44.769 24.7422L57.9099 103.276C58.2246 105.157 59.8039 106.316 61.7157 106.424C61.7946 106.428 61.8729 106.431 61.951 106.431C63.7681 106.431 65.3835 105.487 65.8891 103.729L78.6255 59.4519L82.6425 71.5025C83.1989 73.1712 84.7656 74.2971 86.5307 74.2971H99.6164C101.374 78.8876 105.856 82.2033 111.11 82.2033C117.898 82.2033 123.4 76.4672 123.4 69.7069C123.4 62.9463 117.898 57.7208 111.11 57.7208Z" fill="white"/>
</svg>
