<svg width="54" height="55" viewBox="0 0 54 55" fill="none" xmlns="http://www.w3.org/2000/svg">
<path d="M24.2222 2.1416H6.16667C5.0616 2.1416 4.00179 2.58059 3.22039 3.36199C2.43899 4.14339 2 5.2032 2 6.30827V36.8638C2 37.9689 2.43899 39.0287 3.22039 39.8101C4.00179 40.5915 5.0616 41.0305 6.16667 41.0305H47.8333C48.9384 41.0305 49.9982 40.5915 50.7796 39.8101C51.561 39.0287 52 37.9689 52 36.8638V24.3638M27 41.0305V52.1416M13.1111 52.1416H40.8889" stroke="white" stroke-width="4" stroke-linecap="round" stroke-linejoin="round"/>
<path d="M30.0368 2.00003C28.1389 2.00003 26.5993 3.49482 26.5993 5.33857C26.5993 8.67607 30.6618 11.7104 32.8493 12.4167C35.0368 11.7104 39.0993 8.67711 39.0993 5.33857C39.0993 3.49482 37.5608 2.00003 35.6618 2.00003C35.1143 1.99777 34.574 2.12514 34.0852 2.37173C33.5964 2.61832 33.1729 2.97712 32.8493 3.41878C32.5257 2.97712 32.1022 2.61832 31.6134 2.37173C31.1246 2.12514 30.5843 1.99777 30.0368 2.00003Z" fill="#217C99" stroke="white" stroke-width="4" stroke-linecap="round" stroke-linejoin="round"/>
</svg>
