<svg width="42" height="45" viewBox="0 0 42 45" fill="none" xmlns="http://www.w3.org/2000/svg">
<path d="M19.8235 43.3529H3.35294C2.7289 43.3529 2.13042 43.105 1.68916 42.6638C1.2479 42.2225 1 41.624 1 41V3.35294C1 2.7289 1.2479 2.13042 1.68916 1.68916C2.13042 1.2479 2.7289 1 3.35294 1H36.2941C36.9182 1 37.5166 1.2479 37.9579 1.68916C38.3992 2.13042 38.6471 2.7289 38.6471 3.35294V16.8824" fill="white"/>
<path d="M19.8235 43.3529H3.35294C2.7289 43.3529 2.13042 43.105 1.68916 42.6638C1.2479 42.2225 1 41.624 1 41V3.35294C1 2.7289 1.2479 2.13042 1.68916 1.68916C2.13042 1.2479 2.7289 1 3.35294 1H36.2941C36.9182 1 37.5166 1.2479 37.9579 1.68916C38.3992 2.13042 38.6471 2.7289 38.6471 3.35294V16.8824" stroke="#217C99" stroke-width="2" stroke-linecap="round" stroke-linejoin="round"/>
<path d="M35.8658 25.7061C38.7011 25.7061 40.9999 27.9178 40.9999 30.6472C40.9999 34.2002 37.5764 37.2355 35.8658 38.8825C34.7254 39.9806 33.2995 41.0786 31.5882 42.1766C29.8768 41.0786 28.4509 39.9806 27.3105 38.8825C25.5987 37.2355 22.1764 34.2002 22.1764 30.6472C22.1764 27.9178 24.4752 25.7061 27.3105 25.7061C29.0952 25.7061 30.6682 26.5837 31.5882 27.9155C32.0689 27.2282 32.7093 26.6681 33.4545 26.2832C34.1996 25.8983 35.0271 25.7003 35.8658 25.7061Z" fill="white" stroke="#217C99" stroke-width="2" stroke-linejoin="round"/>
<path d="M10.4117 10.4117H29.2353Z" fill="white"/>
<path d="M10.4117 10.4117H29.2353" stroke="#217C99" stroke-width="2" stroke-linecap="round"/>
</svg>
