<svg width="40" height="42" viewBox="0 0 40 42" fill="none" xmlns="http://www.w3.org/2000/svg">
<path d="M38.7995 34.44L25.9335 14.6458V5.1835H28.9225V0H10.6717V5.18875H13.6852V14.651L0.794705 34.44C0.312712 35.1771 0.0389142 36.0308 0.00227717 36.9107C-0.0343598 37.7907 0.167526 38.6642 0.586578 39.4388C1.00563 40.2134 1.62626 40.8604 2.38283 41.3112C3.13939 41.7621 4.00374 42.0001 4.88446 42H34.694C35.5763 41.9986 36.4418 41.759 37.1993 41.3066C37.9567 40.8541 38.5779 40.2055 38.9973 39.4292C39.4167 38.653 39.6188 37.7779 39.5821 36.8963C39.5454 36.0148 39.2714 35.1595 38.789 34.4207L38.8012 34.44H38.7995ZM37.2157 38.4685C36.9709 38.9207 36.6085 39.2982 36.1668 39.5613C35.725 39.8244 35.2204 39.9632 34.7062 39.963H4.88446C4.36817 39.9637 3.86129 39.8248 3.41757 39.5608C2.97384 39.2969 2.6098 38.9178 2.36403 38.4638C2.11826 38.0097 1.99993 37.4977 2.02157 36.9818C2.04321 36.466 2.20402 35.9656 2.48696 35.5338L2.47996 35.5443L15.6907 15.2443V5.18H23.8912V15.2495L37.088 35.5495C37.3855 35.9887 37.564 36.5312 37.564 37.1157C37.564 37.6145 37.4345 38.0835 37.207 38.4895L37.214 38.4755L37.2157 38.4685Z" fill="#217C99"/>
<path d="M25.2204 21.6143H14.3861L4.48986 36.8358C4.43912 36.9128 4.41036 37.0023 4.40666 37.0945C4.40296 37.1867 4.42446 37.2781 4.46886 37.359L4.46711 37.3573C4.55461 37.5095 4.71561 37.611 4.90111 37.6128H34.7071C34.7953 37.6133 34.8821 37.59 34.9581 37.5453C35.0342 37.5007 35.0968 37.4363 35.1394 37.359L35.1411 37.3573C35.1868 37.277 35.209 37.1855 35.205 37.0932C35.2009 37.001 35.1709 36.9117 35.1184 36.8358L35.1201 36.8375L25.2204 21.6143Z" fill="#217C99"/>
</svg>
