<svg width="41" height="41" viewBox="0 0 41 41" fill="none" xmlns="http://www.w3.org/2000/svg">
<rect x="0.541016" y="0.5" width="39.666" height="39.666" stroke="#F6F2F2"/>
<path d="M12.8895 12.8369C12.6082 13.1504 12.6235 13.369 12.6929 13.5367C12.798 13.7943 13.1538 14.1992 13.94 14.5144C14.7025 14.8194 15.6717 14.9516 16.6358 14.8533C17.6084 14.7567 18.3963 14.4449 18.8776 14.0688C19.3486 13.6994 19.3808 13.4063 19.3622 13.2758C19.3401 13.1047 19.1724 12.7353 18.5234 12.371L19.7519 10.1581C20.8092 10.7511 21.692 11.7 21.8597 12.9369C22.0309 14.2162 21.3768 15.326 20.4229 16.0716C19.4774 16.8086 18.2032 17.2441 16.8866 17.3763C15.5633 17.5118 14.1857 17.3407 13.0098 16.8696C11.8576 16.4088 10.824 15.6209 10.3665 14.5059C9.87005 13.3029 10.1869 12.0694 11.0155 11.1425C11.4924 10.6247 12.0717 10.2116 12.7167 9.92932L13.7587 12.2371C13.4314 12.3761 13.1356 12.5802 12.8895 12.8369ZM11.5085 26.7311C11.384 26.7743 11.2664 26.8354 11.1595 26.9124L9.98018 25.3282C10.3299 25.0815 10.7231 24.9032 11.1392 24.8029C11.9101 24.6318 12.7387 24.8198 13.2233 25.5162C13.6486 26.1245 13.652 26.9006 13.4944 27.5699C13.308 28.3022 12.9633 28.9847 12.4845 29.5693C12.0101 30.1623 11.3967 30.6723 10.7223 30.9468C10.0513 31.2196 9.18889 31.2874 8.5196 30.752C7.88758 30.247 7.75372 29.4591 7.82319 28.7915L9.88699 28.9271C9.87747 29.007 9.87747 29.0878 9.88699 29.1677L9.95307 29.144C10.1954 29.0457 10.5292 28.8017 10.8494 28.4069C11.1629 28.0172 11.3798 27.5766 11.4713 27.1937C11.5102 27.0428 11.5228 26.8863 11.5085 26.7311Z" fill="#F11313"/>
<path fill-rule="evenodd" clip-rule="evenodd" d="M26.9248 13.5333C26.9248 10.6528 25.1847 8.45683 23.2157 7.13519C21.2248 5.79999 18.6662 5.08325 16.0094 5.08325C13.3526 5.08325 10.794 5.79999 8.80135 7.13519C6.83414 8.45683 5.09228 10.6511 5.09228 13.5333C5.09228 16.4155 6.83414 18.6115 8.80305 19.9314C9.15097 20.1652 9.51583 20.3799 9.89764 20.5753C9.41865 20.7612 8.95756 20.9903 8.52008 21.2598C7.48738 21.8958 6.56869 22.7005 5.80224 23.6405C4.57718 25.1265 3.73675 26.9022 3.49783 28.6932C3.26739 30.43 3.57408 32.7446 5.45488 34.3153C7.33569 35.8843 9.65534 35.7572 11.3074 35.2066C13.012 34.6372 14.5912 33.4766 15.8145 31.9906C16.9803 30.5757 17.7919 28.9033 18.0766 27.2123C18.3392 25.6365 18.1952 23.5812 16.8125 21.963C19.1796 21.8325 21.4264 21.1327 23.2174 19.9314C25.1863 18.6098 26.9248 16.4155 26.9248 13.5333ZM16.0094 8.46361C20.1827 8.46361 23.5665 10.7341 23.5665 13.5333C23.5665 16.3342 20.1827 18.6047 16.0094 18.6047C11.8361 18.6047 8.45231 16.3342 8.45231 13.5333C8.45231 10.7324 11.8344 8.46361 16.0094 8.46361ZM10.2552 24.1539C9.54449 24.5932 8.91271 25.1488 8.38622 25.7975C6.61386 27.9494 6.25973 30.5977 7.59663 31.711C8.93352 32.8276 11.4531 31.9855 13.2255 29.8336C14.9097 27.7884 15.313 25.2976 14.2031 24.0963C14.1451 24.0323 14.0822 23.9728 14.0151 23.9184C13.1933 23.2321 11.9225 23.2863 10.655 23.9302C10.5206 23.998 10.3873 24.0726 10.2552 24.1539Z" fill="#F11313"/>
<path d="M29.1808 26.3906C29.0729 26.3715 28.9628 26.3675 28.8538 26.3787L28.8605 26.4007C28.8894 26.4804 28.9453 26.5871 29.0469 26.7142C29.2503 26.9683 29.5688 27.2225 29.945 27.4038C30.2328 27.5559 30.553 27.6367 30.8786 27.6393L30.9362 27.6326C30.9152 27.569 30.8868 27.5081 30.8515 27.4513L32.3595 26.6108C32.6476 27.0887 32.8255 27.7291 32.529 28.3374C32.2138 28.9813 31.5394 29.2389 30.9362 29.2744C30.333 29.3083 29.6908 29.1423 29.1232 28.8678C28.5544 28.5992 28.0526 28.2074 27.6541 27.7207C27.2983 27.2733 27.0272 26.6871 27.1322 26.0771C27.2509 25.379 27.81 24.9401 28.4505 24.7944C28.7995 24.7148 29.1655 24.7199 29.5095 24.7741L29.1808 26.3906Z" fill="#F11313"/>
<path fill-rule="evenodd" clip-rule="evenodd" d="M22.687 27.885C22.1685 26.3092 22.1634 24.2335 23.5986 22.4933C25.0354 20.7532 27.1738 20.2398 28.9275 20.3194C30.6982 20.3973 32.4502 21.0582 33.904 22.1155C34.8461 22.8034 35.6323 23.632 36.2118 24.5453C36.3304 24.7317 36.4405 24.922 36.5422 25.1163C37.4403 26.8395 37.8639 29.4303 36.0864 31.5856C35.9503 31.7523 35.8037 31.9102 35.6476 32.0583C34.1395 33.5053 32.1333 33.8713 30.4881 33.7442C28.8157 33.6121 27.167 32.9699 25.7827 31.9617C24.3289 30.9027 23.2106 29.4743 22.687 27.8833M33.2313 26.2583C32.8402 25.6571 32.3403 25.1341 31.7572 24.7164C29.812 23.2999 27.3788 23.1914 26.3198 24.4741C25.2625 25.7551 25.9826 27.9426 27.9295 29.3591C29.7764 30.7045 32.0639 30.8705 33.1957 29.7827C33.2567 29.7262 33.3132 29.6658 33.3652 29.6014C34.0158 28.8135 33.9938 27.6816 33.4279 26.5989C33.3667 26.4835 33.3012 26.3704 33.2313 26.26M27.982 14.5313C27.677 15.5869 28.0295 16.6019 28.6124 17.3457C29.1986 18.0929 30.0712 18.664 31.0743 18.9571C32.0757 19.2502 33.1178 19.2418 34.0091 18.9266C34.8986 18.6131 35.7374 17.9472 36.0424 16.8933C36.3474 15.8377 35.9949 14.821 35.412 14.0772C34.8275 13.3316 33.9532 12.7589 32.9501 12.4675C31.9487 12.1727 30.9066 12.1828 30.0153 12.4963C29.1258 12.8098 28.287 13.4757 27.982 14.5313ZM31.7775 16.5239C31.3161 16.4005 30.9027 16.1406 30.5914 15.7784C30.3661 15.4886 30.3813 15.3039 30.4 15.2395C30.4186 15.1752 30.5033 15.0108 30.849 14.8888C31.1896 14.7702 31.6911 14.7363 32.2469 14.9007C32.8026 15.0633 33.2093 15.3598 33.433 15.6462C33.66 15.9343 33.6431 16.1189 33.6244 16.1833C33.6075 16.2494 33.5228 16.4121 33.1771 16.5341C32.8348 16.6544 32.3333 16.6866 31.7775 16.5239Z" fill="#F11313"/>
</svg>
