<svg width="36" height="37" viewBox="0 0 36 37" fill="none" xmlns="http://www.w3.org/2000/svg">
<path d="M18.3307 23.7653L15.9161 26.1798C15.2502 26.8474 15.2909 27.9471 15.5434 28.857C16.0178 30.5734 15.3655 32.7677 14.1065 34.0267C13.7102 34.4231 13.2397 34.7375 12.7219 34.9521C12.2041 35.1667 11.649 35.2772 11.0885 35.2773C10.528 35.2773 9.97292 35.167 9.45503 34.9526C8.93714 34.7381 8.46656 34.4238 8.07015 34.0275C7.67374 33.6312 7.35927 33.1607 7.14469 32.6429C6.93012 32.1251 6.81963 31.57 6.81956 31.0095C6.8194 29.8775 7.26894 28.7917 8.0693 27.9912C7.26872 28.7915 6.18299 29.2411 5.05095 29.2409C3.91891 29.2407 2.83331 28.7909 2.03295 27.9903C1.23259 27.1897 0.783044 26.104 0.783203 24.972C0.783362 23.8399 1.23321 22.7543 2.0338 21.954C3.29275 20.695 5.48701 20.0427 7.20515 20.5171C8.11336 20.7696 9.21303 20.8102 9.88063 20.1443L19.5388 10.4862C20.2047 9.81856 20.164 8.71889 19.9116 7.80898C19.4371 6.09254 20.0895 3.89828 21.3484 2.63933C22.1488 1.83874 23.2344 1.38889 24.3664 1.38873C25.4985 1.38857 26.5842 1.83812 27.3848 2.63848C28.1854 3.43884 28.6352 4.52444 28.6354 5.65648C28.6355 6.78851 28.186 7.87425 27.3856 8.67483C28.1862 7.87447 29.2719 7.42493 30.404 7.42508C31.536 7.42524 32.6216 7.87509 33.422 8.67568C34.2223 9.47626 34.6719 10.562 34.6717 11.694C34.6716 12.8261 34.2217 13.9117 33.4211 14.712C32.1622 15.971 29.9679 16.6233 28.2498 16.1489C27.3416 15.8964 26.2419 15.8558 25.5743 16.5217L23.1598 18.9362" stroke="black" stroke-width="1.5" stroke-linecap="round" stroke-linejoin="round"/>
</svg>
