<svg width="36" height="50" viewBox="0 0 36 50" fill="none" xmlns="http://www.w3.org/2000/svg">
<path d="M8.21875 25.1114H11.8916L15.5183 19.1843L20.1867 31.3337L23.6925 25.1114H28.0587" stroke="#7F7F7F" stroke-width="3" stroke-linecap="round" stroke-linejoin="round"/>
<path d="M18.1426 41.1108C20.2437 41.1108 22.3243 40.697 24.2655 39.8929C26.2067 39.0888 27.9705 37.9103 29.4563 36.4246C30.942 34.9388 32.1206 33.175 32.9247 31.2338C33.7287 29.2926 34.1426 27.212 34.1426 25.1108C34.1426 23.0097 33.7287 20.9291 32.9247 18.9879C32.1206 17.0467 30.942 15.2829 29.4563 13.7971C27.9705 12.3114 26.2067 11.1328 24.2655 10.3288C22.3243 9.52469 20.2437 9.11084 18.1426 9.11084C13.8991 9.11084 9.82945 10.7965 6.82887 13.7971C3.82829 16.7977 2.14258 20.8674 2.14258 25.1108C2.14258 29.3543 3.82829 33.424 6.82887 36.4246C9.82945 39.4251 13.8991 41.1108 18.1426 41.1108Z" stroke="#7F7F7F" stroke-width="3" stroke-linecap="round" stroke-linejoin="round"/>
<path d="M27.0336 11.7778V5.55556C27.0336 4.61256 26.659 3.70819 25.9922 3.0414C25.3254 2.3746 24.4211 2 23.4781 2H12.8114C11.8684 2 10.9641 2.3746 10.2973 3.0414C9.63046 3.70819 9.25586 4.61256 9.25586 5.55556V11.7778M27.0336 38.3876V44.6667C27.0336 45.6097 26.659 46.514 25.9922 47.1808C25.3254 47.8476 24.4211 48.2222 23.4781 48.2222H12.8114C11.8684 48.2222 10.9641 47.8476 10.2973 47.1808C9.63046 46.514 9.25586 45.6097 9.25586 44.6667V38.3876" stroke="#7F7F7F" stroke-width="3" stroke-linecap="round" stroke-linejoin="round"/>
</svg>
