<svg width="32" height="45" viewBox="0 0 32 45" fill="none" xmlns="http://www.w3.org/2000/svg">
<path d="M7.31641 22.5361H10.5302L13.7035 17.3499L17.7884 27.9805L20.856 22.5361H24.6764" stroke="#217C99" stroke-width="3" stroke-linecap="round" stroke-linejoin="round"/>
<path d="M16 36.5354C17.8385 36.5354 19.659 36.1733 21.3576 35.4697C23.0561 34.7662 24.5995 33.7349 25.8995 32.4349C27.1995 31.1349 28.2308 29.5916 28.9343 27.893C29.6379 26.1944 30 24.3739 30 22.5354C30 20.6969 29.6379 18.8764 28.9343 17.1779C28.2308 15.4793 27.1995 13.936 25.8995 12.6359C24.5995 11.3359 23.0561 10.3047 21.3576 9.60112C19.659 8.89755 17.8385 8.53543 16 8.53543C12.287 8.53543 8.72602 10.0104 6.10051 12.6359C3.475 15.2614 2 18.8224 2 22.5354C2 26.2485 3.475 29.8094 6.10051 32.4349C8.72602 35.0604 12.287 36.5354 16 36.5354Z" stroke="#217C99" stroke-width="3" stroke-linecap="round" stroke-linejoin="round"/>
<path d="M23.7782 10.869V5.42459C23.7782 4.59947 23.4504 3.80815 22.867 3.2247C22.2835 2.64125 21.4922 2.31348 20.6671 2.31348H11.3338C10.5086 2.31348 9.71733 2.64125 9.13388 3.2247C8.55043 3.80815 8.22266 4.59947 8.22266 5.42459V10.869M23.7782 34.1526V39.6468C23.7782 40.4719 23.4504 41.2633 22.867 41.8467C22.2835 42.4301 21.4922 42.7579 20.6671 42.7579H11.3338C10.5086 42.7579 9.71733 42.4301 9.13388 41.8467C8.55043 41.2633 8.22266 40.4719 8.22266 39.6468V34.1526" stroke="#217C99" stroke-width="3" stroke-linecap="round" stroke-linejoin="round"/>
</svg>
