<svg width="34" height="38" viewBox="0 0 34 38" fill="none" xmlns="http://www.w3.org/2000/svg">
<path d="M9.08545 10.9055H15.0218M9.08545 18.82H24.9145M9.08545 26.7346H24.9145M32 12.58V28.1582C31.9639 29.1771 31.7265 30.1789 31.3015 31.1057C30.8765 32.0325 30.2723 32.866 29.5236 33.5582C28.7744 34.2536 27.8955 34.7946 26.9371 35.1502C25.9787 35.5059 24.9597 35.6692 23.9382 35.6309H10.1382C9.11044 35.6779 8.08352 35.5215 7.11632 35.1709C6.14911 34.8202 5.26064 34.282 4.50182 33.5873C3.74594 32.8932 3.13553 32.0558 2.70605 31.1238C2.27656 30.1918 2.03657 29.1837 2 28.1582V9.47819C2.0361 8.45923 2.2735 7.4575 2.69851 6.5307C3.12352 5.60391 3.72775 4.7704 4.47636 4.07819C5.2256 3.38278 6.10451 2.84179 7.06288 2.48615C8.02125 2.1305 9.0403 1.96716 10.0618 2.00546H20.4509C22.0369 1.99986 23.5678 2.58667 24.7436 3.65092L30.1255 8.60001C30.6997 9.0947 31.1634 9.70474 31.4864 10.3905C31.8094 11.0762 31.9844 11.8222 32 12.58Z" stroke="#217C99" stroke-width="3" stroke-linecap="round" stroke-linejoin="round"/>
</svg>
