<svg width="33" height="31" viewBox="0 0 33 31" fill="none" xmlns="http://www.w3.org/2000/svg">
<path d="M31.4641 13.2658C26.5204 9.10375 17.5429 1.34979 17.4539 1.27104L16.4987 0.449997L15.5479 1.27104C15.4574 1.34833 6.47557 9.09937 1.46036 13.2994C1.14836 13.5755 0.897819 13.914 0.72498 14.2931C0.552141 14.6722 0.460854 15.0834 0.457031 15.5C0.457031 16.2735 0.764322 17.0154 1.3113 17.5624C1.85828 18.1094 2.60015 18.4167 3.3737 18.4167H4.83203V27.1667C4.83203 27.9402 5.13932 28.6821 5.6863 29.2291C6.23328 29.776 6.97515 30.0833 7.7487 30.0833H25.2487C26.0222 30.0833 26.7641 29.776 27.3111 29.2291C27.8581 28.6821 28.1654 27.9402 28.1654 27.1667V18.4167H29.6237C30.3972 18.4167 31.1391 18.1094 31.6861 17.5624C32.2331 17.0154 32.5404 16.2735 32.5404 15.5C32.5404 14.6279 32.1393 13.8069 31.4641 13.2658ZM19.4154 27.1667H13.582V19.875H19.4154V27.1667ZM25.2487 15.5L25.2516 27.1667H20.8737V18.4167H12.1237V27.1667H7.7487V15.5H3.37224C7.40453 12.1283 14.0399 6.41895 16.4987 4.3C18.9574 6.41895 25.5899 12.1269 29.6237 15.5015L25.2487 15.5Z" fill="white"/>
</svg>
