<svg width="38" height="37" viewBox="0 0 38 37" fill="none" xmlns="http://www.w3.org/2000/svg">
<path d="M25.9854 1.60667C25.191 1.98557 24.6112 2.49157 24.349 3.07462C24.0869 3.65767 24.071 4.37734 24.6112 5.44335C24.9924 6.1805 25.7471 7.06381 26.4937 8.04085C27.2404 9.00995 27.9871 10.0982 28.2731 11.393C28.6464 13.1008 28.0427 14.8881 27.5661 16.4609C27.3199 17.2552 27.1054 17.994 27.0101 18.5977C26.9147 19.2014 26.9624 19.6462 27.0974 19.9083C27.582 20.8139 28.2334 21.2031 29.0833 21.3302C29.9333 21.4573 30.9977 21.2508 32.0621 20.7662C34.1989 19.813 36.2959 17.7557 36.9394 15.8969C37.4477 14.4433 37.2968 10.8925 36.2801 7.69929C35.2712 4.50761 33.4363 1.69881 31.1009 1.03633C29.5361 0.673315 27.3437 0.982315 25.9854 1.60667ZM6.87345 1.03792C4.53729 1.7012 2.70633 4.51 1.69036 7.70723C0.674395 10.8925 0.529031 14.4433 1.03503 15.8969C1.68162 17.7557 3.7779 19.813 5.9115 20.7662C6.97672 21.2508 8.04114 21.4573 8.89109 21.3302C9.74104 21.2031 10.3924 20.8139 10.8769 19.9083C11.012 19.6462 11.0596 19.2014 10.9643 18.5977C10.869 17.994 10.6545 17.2552 10.4083 16.4609C9.93168 14.8881 9.32798 13.1008 9.70132 11.393C9.98728 10.0982 10.734 9.00995 11.4806 8.04085C12.2273 7.06381 12.982 6.1805 13.3632 5.44335C13.9034 4.37734 13.8875 3.65767 13.6254 3.07462C13.3632 2.49157 12.7834 1.98637 11.989 1.60746C10.3209 1.05142 8.58129 0.562901 6.87345 1.03792ZM11.568 10.4795C11.3297 10.9482 11.1709 11.4009 11.0676 11.8458C12.0685 12.3462 12.9581 12.942 13.3156 13.4662C15.3014 16.3497 16.0005 22.0054 16.0958 26.8827C16.1832 31.76 15.7383 36.4942 15.7383 36.4942L17.1523 36.6531C17.1523 36.6531 17.613 31.8394 17.5177 26.8509C17.4303 21.8704 16.8584 16.0955 14.4912 12.656C13.8319 11.7028 12.7198 11.0117 11.568 10.4795ZM26.4064 10.4795C25.2546 11.0117 24.1425 11.7028 23.4832 12.656C21.116 16.0955 20.5441 21.8704 20.4567 26.8509C20.3614 31.8394 20.8221 36.6531 20.8221 36.6531L22.2361 36.4942C22.2361 36.4942 21.7912 31.76 21.8786 26.8827C21.9739 22.0054 22.673 16.3497 24.6588 13.4662C25.0163 12.942 25.9059 12.3462 26.9068 11.8458C26.8035 11.3612 26.605 10.8608 26.4064 10.4795Z" fill="#AC7900"/>
</svg>
