<svg width="35" height="36" viewBox="0 0 35 36" fill="none" xmlns="http://www.w3.org/2000/svg">
<path d="M17.9165 0.757935C23.4192 0.757935 28.5142 3.19871 31.8927 7.30865C31.989 7.42515 32.0608 7.55982 32.104 7.70465C32.1471 7.84948 32.1607 8.00151 32.1439 8.15169C32.127 8.30187 32.0802 8.44714 32.0061 8.57884C31.932 8.71055 31.8322 8.826 31.7125 8.91833C31.469 9.10922 31.1607 9.19772 30.853 9.16506C30.5452 9.13239 30.2624 8.98113 30.0643 8.74337C28.5871 6.95377 26.7309 5.51444 24.6299 4.52927C22.5288 3.5441 20.2353 3.03765 17.9147 3.04649C9.31517 3.04649 2.34279 9.85615 2.34279 18.2545C2.34279 26.6529 9.31517 33.4625 17.9147 33.4625C20.2687 33.4718 22.5946 32.9508 24.7197 31.9382C26.8448 30.9256 28.7146 29.4474 30.1903 27.6134C30.385 27.3732 30.6656 27.2182 30.9726 27.1813C31.2796 27.1444 31.5889 27.2285 31.835 27.4157C31.9557 27.5065 32.0569 27.6205 32.1326 27.7512C32.2083 27.8818 32.257 28.0263 32.2758 28.1762C32.2946 28.326 32.283 28.4781 32.2419 28.6234C32.2007 28.7686 32.1308 28.9042 32.0362 29.0219C28.6629 33.2386 23.4996 35.7511 17.9165 35.7511C8.01867 35.7511 0 27.9179 0 18.2545C0 8.59115 8.02042 0.757935 17.9165 0.757935ZM29.9156 13.2855L34.6502 18.0218C35.1086 18.4785 35.1174 19.2116 34.6712 19.6595L30.0451 24.2838C29.9366 24.3906 29.8081 24.4749 29.667 24.5318C29.5258 24.5888 29.3748 24.6172 29.2226 24.6156C29.0704 24.614 28.9201 24.5823 28.7802 24.5223C28.6402 24.4624 28.5136 24.3754 28.4074 24.2663C28.298 24.1602 28.2106 24.0336 28.1503 23.8936C28.0901 23.7536 28.0582 23.603 28.0564 23.4506C28.0546 23.2982 28.083 23.147 28.1399 23.0056C28.1969 22.8642 28.2812 22.7355 28.3882 22.6269L31.0949 19.9202H13.0559C12.9037 19.9225 12.7525 19.8947 12.6111 19.8383C12.4696 19.782 12.3407 19.6982 12.2318 19.5919C12.1228 19.4855 12.036 19.3587 11.9762 19.2187C11.9165 19.0786 11.885 18.9281 11.8837 18.7759C11.8837 18.1425 12.4086 17.6299 13.0559 17.6299H31.0232L28.2972 14.9039C28.188 14.7979 28.1009 14.6713 28.0408 14.5314C27.9807 14.3916 27.9488 14.2413 27.947 14.0891C27.9452 13.9369 27.9735 13.7858 28.0303 13.6446C28.0871 13.5034 28.1713 13.3748 28.2779 13.2662C28.3865 13.1596 28.5151 13.0754 28.6563 13.0186C28.7975 12.9618 28.9486 12.9335 29.1008 12.9353C29.253 12.9371 29.4033 12.9689 29.5432 13.029C29.683 13.0891 29.8096 13.1763 29.9156 13.2855Z" fill="#217C99"/>
</svg>
