<svg width="38" height="39" viewBox="0 0 38 39" fill="none" xmlns="http://www.w3.org/2000/svg">
<path d="M37.9631 17.7047C37.7529 11.6437 36.1629 6.76311 32.5695 4.09836C28.9761 1.43361 23.5766 0.510927 16.7924 0.832739C13.7061 0.981177 10.9285 1.38374 8.67107 2.28624C6.34595 3.21961 4.5457 4.53774 3.22876 6.36886C0.581824 10.0489 -0.235176 15.6088 0.0557613 22.0106C0.333636 28.0906 1.9047 32.9024 5.54201 35.5244C9.16032 38.1345 15.0361 38.9634 21.2336 38.6974C27.2459 38.4432 32.1313 36.8544 34.7474 33.2111C37.3575 29.5738 38.1864 24.2122 37.9631 17.7059V17.7047ZM10.4523 24.1434H9.66739V22.4607H10.4523C11.9486 22.4607 13.0434 21.3041 13.0434 19.8696C13.0438 19.5292 12.977 19.1921 12.8468 18.8776C12.7167 18.5631 12.5259 18.2773 12.2852 18.0367C12.0446 17.796 11.7588 17.6051 11.4443 17.475C11.1298 17.3449 10.7927 17.2781 10.4523 17.2784H7.92295C7.87829 17.2784 7.83483 17.2929 7.79908 17.3196C7.76333 17.3464 7.73721 17.384 7.72464 17.4269V26.611H6.09182V17.4269C6.09182 16.4187 6.91476 15.5957 7.92295 15.5957H10.4523C12.8154 15.5957 14.7689 17.5136 14.7689 19.8696C14.7689 22.2327 12.9449 24.1434 10.4523 24.1434ZM24.2321 24.1434H22.5803V19.7461C22.5434 18.5027 21.2253 17.2654 19.8217 17.2654C18.2447 17.2654 17.0881 18.6132 17.0881 19.8696C17.0881 21.6567 18.3433 22.4737 19.8217 22.4737H20.4095V24.1434H19.8217C17.3909 24.1434 15.4113 22.5842 15.4113 19.8696C15.4113 17.662 17.3909 15.5957 19.8217 15.5957C22.0233 15.5957 24.1632 17.4447 24.2321 19.7461V24.1434ZM26.3292 15.8796L28.4821 20.2959L27.5488 22.1947L24.4624 15.8796H26.3292ZM28.3266 26.9138H26.4527L31.8772 15.8796H33.7511L28.3266 26.9138Z" fill="#217C99"/>
</svg>
