<svg width="35" height="28" viewBox="0 0 35 28" fill="none" xmlns="http://www.w3.org/2000/svg">
<path fill-rule="evenodd" clip-rule="evenodd" d="M12.0312 10.125C12.9015 10.125 13.7361 9.7793 14.3514 9.16394C14.9668 8.54859 15.3125 7.71399 15.3125 6.84375C15.3125 5.97351 14.9668 5.13891 14.3514 4.52356C13.7361 3.9082 12.9015 3.5625 12.0312 3.5625C11.161 3.5625 10.3264 3.9082 9.71106 4.52356C9.0957 5.13891 8.75 5.97351 8.75 6.84375C8.75 7.71399 9.0957 8.54859 9.71106 9.16394C10.3264 9.7793 11.161 10.125 12.0312 10.125ZM12.0312 13.4062C13.7717 13.4062 15.4409 12.7148 16.6716 11.4841C17.9023 10.2534 18.5938 8.58423 18.5938 6.84375C18.5938 5.10327 17.9023 3.43407 16.6716 2.20336C15.4409 0.972654 13.7717 0.28125 12.0312 0.28125C10.2908 0.28125 8.62157 0.972654 7.39086 2.20336C6.16015 3.43407 5.46875 5.10327 5.46875 6.84375C5.46875 8.58423 6.16015 10.2534 7.39086 11.4841C8.62157 12.7148 10.2908 13.4062 12.0312 13.4062ZM5.40531 19.7194C3.70562 20.9006 3.28125 22.0447 3.28125 22.5763C3.28125 23.5519 4.07313 24.3438 5.04875 24.3438H19.0138C19.4822 24.3426 19.9311 24.156 20.2623 23.8248C20.5935 23.4936 20.7801 23.0447 20.7812 22.5763C20.7812 22.0425 20.3569 20.8984 18.6572 19.7194C17.045 18.6016 14.6978 17.7812 12.0312 17.7812C9.36469 17.7812 7.0175 18.6016 5.40531 19.7194ZM0 22.5763C0 18.5381 5.41406 14.5 12.0312 14.5C14.6125 14.5 17.0144 15.1147 18.9809 16.1056C20.8641 15.041 22.993 14.4875 25.1562 14.5C30.5703 14.5 35 17.8644 35 21.2309C35 22.3466 34.5568 23.4165 33.7679 24.2054C32.979 24.9943 31.9091 25.4375 30.7934 25.4375H23.1744C22.2644 26.7587 20.7397 27.625 19.0138 27.625H5.04875C3.71009 27.6238 2.4266 27.0915 1.48002 26.145C0.533451 25.1984 0.00115851 23.9149 0 22.5763ZM24.0428 22.1562H30.7934C31.3053 22.1562 31.7188 21.7406 31.7188 21.2309C31.7188 21.0056 31.5088 20.1984 30.2138 19.2841C29.0019 18.4244 27.2059 17.7812 25.1562 17.7812C24.0253 17.7812 22.9709 17.9781 22.05 18.2975C23.2006 19.4656 23.9181 20.8044 24.0428 22.1562ZM27.3438 7.9375C27.3438 8.51766 27.1133 9.07406 26.703 9.4843C26.2928 9.89453 25.7364 10.125 25.1562 10.125C24.5761 10.125 24.0197 9.89453 23.6095 9.4843C23.1992 9.07406 22.9688 8.51766 22.9688 7.9375C22.9688 7.35734 23.1992 6.80094 23.6095 6.3907C24.0197 5.98047 24.5761 5.75 25.1562 5.75C25.7364 5.75 26.2928 5.98047 26.703 6.3907C27.1133 6.80094 27.3438 7.35734 27.3438 7.9375ZM30.625 7.9375C30.625 9.3879 30.0488 10.7789 29.0232 11.8045C27.9977 12.8301 26.6067 13.4062 25.1562 13.4062C23.7058 13.4062 22.3148 12.8301 21.2893 11.8045C20.2637 10.7789 19.6875 9.3879 19.6875 7.9375C19.6875 6.4871 20.2637 5.0961 21.2893 4.07051C22.3148 3.04492 23.7058 2.46875 25.1562 2.46875C26.6067 2.46875 27.9977 3.04492 29.0232 4.07051C30.0488 5.0961 30.625 6.4871 30.625 7.9375Z" fill="#217C99"/>
</svg>
