<svg width="37" height="33" viewBox="0 0 37 33" fill="none" xmlns="http://www.w3.org/2000/svg">
<path d="M13.4125 14.4966H16.65V17.961C16.65 18.0923 16.6987 18.2182 16.7855 18.311C16.8722 18.4038 16.9898 18.4559 17.1125 18.4559H19.8875C20.0102 18.4559 20.1278 18.4038 20.2145 18.311C20.3013 18.2182 20.35 18.0923 20.35 17.961V14.4966H23.5875C23.7102 14.4966 23.8278 14.4445 23.9145 14.3517C24.0013 14.2588 24.05 14.133 24.05 14.0017V11.0322C24.05 10.901 24.0013 10.7751 23.9145 10.6823C23.8278 10.5894 23.7102 10.5373 23.5875 10.5373H20.35V7.07291C20.35 6.94165 20.3013 6.81577 20.2145 6.72296C20.1278 6.63014 20.0102 6.578 19.8875 6.578H17.1125C16.9898 6.578 16.8722 6.63014 16.7855 6.72296C16.6987 6.81577 16.65 6.94165 16.65 7.07291V10.5373H13.4125C13.2898 10.5373 13.1722 10.5894 13.0855 10.6823C12.9987 10.7751 12.95 10.901 12.95 11.0322V14.0017C12.95 14.133 12.9987 14.2588 13.0855 14.3517C13.1722 14.4445 13.2898 14.4966 13.4125 14.4966ZM33.3 3.60852C33.2979 2.82167 33.0048 2.06769 32.4849 1.5113C31.9649 0.954912 31.2603 0.641323 30.525 0.639038L6.475 0.639038C5.73968 0.641323 5.03509 0.954912 4.51514 1.5113C3.99519 2.06769 3.70214 2.82167 3.7 3.60852V24.3949H33.3V3.60852ZM29.6 20.4356H7.4V4.59835H29.6V20.4356ZM36.075 26.3745H22.0578C22.015 27.6001 21.2074 28.3542 20.165 28.3542H16.65C15.5695 28.3542 14.7422 27.2734 14.7555 26.3745H0.925C0.679675 26.3745 0.444397 26.4788 0.270926 26.6645C0.0974551 26.8501 0 27.1018 0 27.3644L0 28.3542C0.00289771 29.4033 0.393649 30.4086 1.08691 31.1504C1.78016 31.8923 2.71959 32.3104 3.7 32.3135H33.3C34.2804 32.3104 35.2198 31.8923 35.9131 31.1504C36.6063 30.4086 36.9971 29.4033 37 28.3542V27.3644C37 27.1018 36.9025 26.8501 36.7291 26.6645C36.5556 26.4788 36.3203 26.3745 36.075 26.3745Z" fill="#217C99"/>
</svg>
