<svg width="35" height="36" viewBox="0 0 35 36" fill="none" xmlns="http://www.w3.org/2000/svg">
<path d="M8.16601 0.639038V12.3057M26.8327 0.639038V12.3057M6.99935 18.139H13.9993M27.9993 18.139H20.9993M6.99935 25.139H13.9993M20.9993 25.139H27.9993M3.49935 6.47237H31.4993C32.1182 6.47237 32.7117 6.7182 33.1493 7.15579C33.5868 7.59337 33.8327 8.18687 33.8327 8.8057V32.139C33.8327 32.7579 33.5868 33.3514 33.1493 33.789C32.7117 34.2265 32.1182 34.4724 31.4993 34.4724H3.49935C2.88051 34.4724 2.28702 34.2265 1.84943 33.789C1.41185 33.3514 1.16602 32.7579 1.16602 32.139V8.8057C1.16602 8.18687 1.41185 7.59337 1.84943 7.15579C2.28702 6.7182 2.88051 6.47237 3.49935 6.47237Z" stroke="#217C99" stroke-width="3"/>
</svg>
