<svg width="26" height="25" viewBox="0 0 26 25" fill="none" xmlns="http://www.w3.org/2000/svg">
<path fill-rule="evenodd" clip-rule="evenodd" d="M11.125 2.1875C6.4651 2.1875 2.6875 5.9651 2.6875 10.625C2.6875 15.2849 6.4651 19.0625 11.125 19.0625C13.4552 19.0625 15.5633 18.1191 17.0912 16.5912C18.6191 15.0633 19.5625 12.9552 19.5625 10.625C19.5625 5.9651 15.7849 2.1875 11.125 2.1875ZM0.8125 10.625C0.8125 4.92956 5.42956 0.3125 11.125 0.3125C16.8204 0.3125 21.4375 4.92956 21.4375 10.625C21.4375 13.1348 20.54 15.4363 19.0499 17.2241L24.9129 23.0871C25.279 23.4532 25.279 24.0468 24.9129 24.4129C24.5468 24.779 23.9532 24.779 23.5871 24.4129L17.7241 18.5499C15.9363 20.04 13.6348 20.9375 11.125 20.9375C5.42956 20.9375 0.8125 16.3204 0.8125 10.625Z" fill="#7F7F7F"/>
</svg>
