<svg width="47" height="47" viewBox="0 0 47 47" fill="none" xmlns="http://www.w3.org/2000/svg">
<rect x="1.47461" y="0.913574" width="44.7542" height="44.7542" stroke="#F6F2F2"/>
<path d="M22.6167 18.431L22.8981 17.5714L22.6167 18.431ZM25.6647 26.238C25.6648 26.2381 25.6648 26.2382 25.6649 26.2382L25.6647 26.238Z" fill="#BF6260" stroke="#BF6260" stroke-width="3"/>
<path d="M31.954 20.4308L31.9537 20.4307L31.9535 20.4307L31.954 20.4308ZM31.954 20.4308L31.9549 20.431L32.8853 20.272L31.9549 20.431L32.4867 20.5519L32.4865 20.5526L32.4865 20.5526L32.4865 20.5528M31.954 20.4308L31.9534 20.4313M32.4865 20.5528L32.1378 20.4733L31.9534 20.4313M32.4865 20.5528L30.1044 31.034M32.4865 20.5528C32.4543 20.6941 32.3673 20.8168 32.2447 20.894L31.9534 20.4315M31.9534 20.4313L31.9534 20.4315M31.9534 20.4313L30.1044 31.034M31.9534 20.4313L31.9533 20.4314L31.8325 20.9646C31.9738 20.9966 32.1221 20.9712 32.2447 20.894L31.9534 20.4315M31.9534 20.4313L31.9534 20.4315M31.9534 20.4313L31.9533 20.4313L31.9534 20.4313ZM30.1044 31.034L30.4997 31.128M30.1044 31.034L31.4201 20.31L31.4201 20.3102L29.038 30.7912L28.641 30.7048L29.0372 30.7948L29.037 30.7956L29.5611 30.9147L29.5703 30.9168L29.5794 30.9188L30.4997 31.128M30.4997 31.128L32.8828 20.6427L30.0761 31.7168C30.2894 31.584 30.4416 31.3724 30.4997 31.128Z" fill="#BF6260" stroke="#BF6260" stroke-width="3"/>
<mask id="path-4-inside-1_555_8159" fill="white">
<path fill-rule="evenodd" clip-rule="evenodd" d="M23.6012 13.6184C23.6822 13.5229 23.7812 13.4442 23.8925 13.387C24.0039 13.3297 24.1255 13.2949 24.2503 13.2846C24.3751 13.2744 24.5007 13.2888 24.62 13.3271C24.7392 13.3654 24.8497 13.4268 24.9452 13.5079L31.8694 19.3797L38.376 17.6048C38.6199 17.5383 38.8803 17.5714 39.0998 17.6969C39.3194 17.8224 39.48 18.03 39.5465 18.2739C39.613 18.5179 39.5799 18.7783 39.4544 18.9978C39.3289 19.2173 39.1213 19.378 38.8774 19.4445L31.8865 21.3509C31.7372 21.3917 31.5801 21.3954 31.429 21.3619C31.2779 21.3283 31.1372 21.2585 31.0191 21.1584L23.7118 14.9625C23.6162 14.8815 23.5376 14.7825 23.4803 14.6711C23.423 14.5598 23.3882 14.4382 23.378 14.3134C23.3677 14.1885 23.3821 14.0629 23.4204 13.9437C23.4587 13.8245 23.5202 13.7139 23.6012 13.6184ZM11.2142 14.9758C11.3343 14.8609 11.4824 14.7795 11.6438 14.7395C11.8052 14.6995 11.9742 14.7025 12.134 14.748L20.0171 16.9985C20.1772 17.0443 20.3225 17.1312 20.4386 17.2506C20.5547 17.37 20.6374 17.5178 20.6786 17.6791L22.8682 26.2313C22.912 26.4016 22.9078 26.5807 22.8562 26.7488C22.8045 26.9168 22.7074 27.0673 22.5755 27.1836L16.4435 32.5845C16.3238 32.6901 16.1794 32.764 16.0237 32.7993C15.868 32.8346 15.7059 32.8303 15.5523 32.7866L7.6692 30.5351C7.51122 30.4901 7.36756 30.405 7.25216 30.2881C7.13675 30.1712 7.05352 30.0264 7.01053 29.8679L4.82005 21.7655C4.77538 21.6001 4.77616 21.4256 4.82229 21.2606C4.86842 21.0955 4.9582 20.9459 5.08218 20.8276L11.2142 14.9758ZM12.135 16.7316L6.80845 21.8151L8.71011 28.8498L15.5742 30.8096L20.8769 26.1389L18.9676 18.6819L12.135 16.7316Z"/>
</mask>
<path fill-rule="evenodd" clip-rule="evenodd" d="M23.6012 13.6184C23.6822 13.5229 23.7812 13.4442 23.8925 13.387C24.0039 13.3297 24.1255 13.2949 24.2503 13.2846C24.3751 13.2744 24.5007 13.2888 24.62 13.3271C24.7392 13.3654 24.8497 13.4268 24.9452 13.5079L31.8694 19.3797L38.376 17.6048C38.6199 17.5383 38.8803 17.5714 39.0998 17.6969C39.3194 17.8224 39.48 18.03 39.5465 18.2739C39.613 18.5179 39.5799 18.7783 39.4544 18.9978C39.3289 19.2173 39.1213 19.378 38.8774 19.4445L31.8865 21.3509C31.7372 21.3917 31.5801 21.3954 31.429 21.3619C31.2779 21.3283 31.1372 21.2585 31.0191 21.1584L23.7118 14.9625C23.6162 14.8815 23.5376 14.7825 23.4803 14.6711C23.423 14.5598 23.3882 14.4382 23.378 14.3134C23.3677 14.1885 23.3821 14.0629 23.4204 13.9437C23.4587 13.8245 23.5202 13.7139 23.6012 13.6184ZM11.2142 14.9758C11.3343 14.8609 11.4824 14.7795 11.6438 14.7395C11.8052 14.6995 11.9742 14.7025 12.134 14.748L20.0171 16.9985C20.1772 17.0443 20.3225 17.1312 20.4386 17.2506C20.5547 17.37 20.6374 17.5178 20.6786 17.6791L22.8682 26.2313C22.912 26.4016 22.9078 26.5807 22.8562 26.7488C22.8045 26.9168 22.7074 27.0673 22.5755 27.1836L16.4435 32.5845C16.3238 32.6901 16.1794 32.764 16.0237 32.7993C15.868 32.8346 15.7059 32.8303 15.5523 32.7866L7.6692 30.5351C7.51122 30.4901 7.36756 30.405 7.25216 30.2881C7.13675 30.1712 7.05352 30.0264 7.01053 29.8679L4.82005 21.7655C4.77538 21.6001 4.77616 21.4256 4.82229 21.2606C4.86842 21.0955 4.9582 20.9459 5.08218 20.8276L11.2142 14.9758ZM12.135 16.7316L6.80845 21.8151L8.71011 28.8498L15.5742 30.8096L20.8769 26.1389L18.9676 18.6819L12.135 16.7316Z" fill="#BF6260"/>
<path d="M23.6012 13.6184L25.8886 15.5596L25.8901 15.5578L23.6012 13.6184ZM24.9452 13.5079L23.0041 15.7952L23.0049 15.7959L24.9452 13.5079ZM31.8694 19.3797L29.929 21.6677L31.1343 22.6898L32.6589 22.2739L31.8694 19.3797ZM38.376 17.6048L37.5871 14.7103L37.5865 14.7105L38.376 17.6048ZM38.8774 19.4445L38.0885 16.55L38.0881 16.5502L38.8774 19.4445ZM31.8865 21.3509L31.0972 18.4566L31.0967 18.4567L31.8865 21.3509ZM31.0191 21.1584L32.9593 18.8702L32.9592 18.8702L31.0191 21.1584ZM23.7118 14.9625L25.6519 12.6743L25.6511 12.6736L23.7118 14.9625ZM11.2142 14.9758L13.2853 17.1462L13.2875 17.1441L11.2142 14.9758ZM12.134 14.748L12.9576 11.8633L12.9557 11.8627L12.134 14.748ZM20.0171 16.9985L20.8418 14.1141L20.8407 14.1138L20.0171 16.9985ZM20.6786 17.6791L17.772 18.4215L17.7724 18.4232L20.6786 17.6791ZM22.8682 26.2313L19.9619 26.9754L19.9627 26.9785L22.8682 26.2313ZM22.5755 27.1836L24.5584 29.4349L24.56 29.4335L22.5755 27.1836ZM16.4435 32.5845L14.4607 30.3332L14.4588 30.3348L16.4435 32.5845ZM15.5523 32.7866L14.7284 35.6712L14.732 35.6723L15.5523 32.7866ZM7.6692 30.5351L8.49309 27.6505L8.49166 27.65L7.6692 30.5351ZM7.01053 29.8679L4.1145 30.6508L4.11507 30.6529L7.01053 29.8679ZM4.82005 21.7655L1.92372 22.5474L1.92402 22.5485L4.82005 21.7655ZM5.08218 20.8276L3.01104 18.6573L3.01085 18.6574L5.08218 20.8276ZM12.135 16.7316L12.9584 13.8468L11.3065 13.3753L10.0638 14.5614L12.135 16.7316ZM6.80845 21.8151L4.73723 19.6449L3.44697 20.8762L3.9124 22.598L6.80845 21.8151ZM8.71011 28.8498L5.81406 29.6327L6.25643 31.2691L7.88647 31.7345L8.71011 28.8498ZM15.5742 30.8096L14.7506 33.6944L16.3269 34.1444L17.5571 33.0609L15.5742 30.8096ZM20.8769 26.1389L22.8598 28.3901L24.239 27.1753L23.7832 25.3948L20.8769 26.1389ZM18.9676 18.6819L21.8739 17.9378L21.4468 16.2697L19.791 15.7971L18.9676 18.6819ZM25.8901 15.5578C25.7162 15.763 25.5036 15.9319 25.2645 16.0549L22.5206 10.719C22.0587 10.9566 21.6481 11.2828 21.3123 11.6791L25.8901 15.5578ZM25.2645 16.0549C25.0253 16.1778 24.7643 16.2525 24.4963 16.2745L24.0043 10.2947C23.4867 10.3373 22.9825 10.4815 22.5206 10.719L25.2645 16.0549ZM24.4963 16.2745C24.2283 16.2966 23.9585 16.2656 23.7025 16.1834L25.5375 10.4708C25.0429 10.312 24.522 10.2522 24.0043 10.2947L24.4963 16.2745ZM23.7025 16.1834C23.4464 16.1011 23.2091 15.9692 23.0041 15.7952L26.8864 11.2205C26.4904 10.8844 26.032 10.6297 25.5375 10.4708L23.7025 16.1834ZM23.0049 15.7959L29.929 21.6677L33.8097 17.0916L26.8855 11.2198L23.0049 15.7959ZM32.6589 22.2739L39.1655 20.499L37.5865 14.7105L31.0799 16.4854L32.6589 22.2739ZM39.1648 20.4992C38.6411 20.6419 38.0822 20.5708 37.611 20.3014L40.5887 15.0925C39.6785 14.5721 38.5988 14.4346 37.5871 14.7103L39.1648 20.4992ZM37.611 20.3014C37.1398 20.032 36.7948 19.5865 36.6521 19.0628L42.441 17.4851C42.1653 16.4735 41.499 15.6128 40.5887 15.0925L37.611 20.3014ZM36.6521 19.0628C36.5094 18.5391 36.5805 17.9802 36.8499 17.5089L42.0589 20.4867C42.5792 19.5764 42.7167 18.4967 42.441 17.4851L36.6521 19.0628ZM36.8499 17.5089C37.1193 17.0377 37.5648 16.6928 38.0885 16.55L39.6662 22.3389C40.6778 22.0632 41.5385 21.3969 42.0589 20.4867L36.8499 17.5089ZM38.0881 16.5502L31.0972 18.4566L32.6758 24.2452L39.6667 22.3388L38.0881 16.5502ZM31.0967 18.4567C31.4174 18.3692 31.7546 18.3611 32.0791 18.4332L30.7789 24.2906C31.4057 24.4297 32.0569 24.4141 32.6763 24.2451L31.0967 18.4567ZM32.0791 18.4332C32.4036 18.5052 32.7057 18.6552 32.9593 18.8702L29.0789 23.4465C29.5686 23.8618 30.1521 24.1515 30.7789 24.2906L32.0791 18.4332ZM32.9592 18.8702L25.6519 12.6743L21.7716 17.2507L29.0789 23.4465L32.9592 18.8702ZM25.6511 12.6736C25.8563 12.8474 26.0252 13.06 26.1482 13.2992L20.8124 16.0431C21.0499 16.505 21.3761 16.9156 21.7724 17.2513L25.6511 12.6736ZM26.1482 13.2992C26.2712 13.5383 26.3458 13.7994 26.3679 14.0674L20.3881 14.5593C20.4307 15.077 20.5748 15.5812 20.8124 16.0431L26.1482 13.2992ZM26.3679 14.0674C26.3899 14.3354 26.3589 14.6051 26.2767 14.8612L20.5642 13.0262C20.4053 13.5207 20.3455 14.0417 20.3881 14.5593L26.3679 14.0674ZM26.2767 14.8612C26.1945 15.1172 26.0626 15.3545 25.8885 15.5596L21.3138 11.6773C20.9778 12.0733 20.723 12.5317 20.5642 13.0262L26.2767 14.8612ZM13.2875 17.1441C13.0295 17.3908 12.7115 17.5657 12.365 17.6515L10.9226 11.8275C10.2534 11.9932 9.63918 12.3311 9.1409 12.8075L13.2875 17.1441ZM12.365 17.6515C12.0185 17.7373 11.6557 17.731 11.3124 17.6333L12.9557 11.8627C12.2927 11.6739 11.5918 11.6617 10.9226 11.8275L12.365 17.6515ZM11.3105 17.6327L19.1936 19.8833L20.8407 14.1138L12.9576 11.8633L11.3105 17.6327ZM19.1924 19.883C18.8486 19.7847 18.5366 19.598 18.2874 19.3416L22.5898 15.1597C22.1085 14.6644 21.5058 14.304 20.8418 14.1141L19.1924 19.883ZM18.2874 19.3416C18.0382 19.0852 17.8604 18.768 17.772 18.4215L23.5853 16.9367C23.4144 16.2676 23.0712 15.6549 22.5898 15.1597L18.2874 19.3416ZM17.7724 18.4232L19.9619 26.9754L25.7744 25.4873L23.5849 16.9351L17.7724 18.4232ZM19.9627 26.9785C19.8687 26.6129 19.8776 26.2284 19.9885 25.8675L25.7238 27.63C25.938 26.933 25.9552 26.1904 25.7736 25.4842L19.9627 26.9785ZM19.9885 25.8675C20.0994 25.5066 20.3079 25.1835 20.5911 24.9338L24.56 29.4335C25.1068 28.9511 25.5096 28.327 25.7238 27.63L19.9885 25.8675ZM20.5927 24.9323L14.4607 30.3332L18.4264 34.8358L24.5584 29.4349L20.5927 24.9323ZM14.4588 30.3348C14.7159 30.108 15.0259 29.9494 15.3603 29.8736L16.6871 35.7251C17.3329 35.5786 17.9316 35.2723 18.4282 34.8342L14.4588 30.3348ZM15.3603 29.8736C15.6947 29.7978 16.0428 29.8072 16.3726 29.9009L14.732 35.6723C15.369 35.8533 16.0412 35.8715 16.6871 35.7251L15.3603 29.8736ZM16.3762 29.9019L8.49309 27.6505L6.84531 33.4198L14.7284 35.6712L16.3762 29.9019ZM8.49166 27.65C8.83088 27.7467 9.13935 27.9295 9.38716 28.1805L5.11716 32.3956C5.59577 32.8805 6.19157 33.2334 6.84674 33.4202L8.49166 27.65ZM9.38716 28.1805C9.63497 28.4315 9.81369 28.7424 9.90599 29.0828L4.11507 30.6529C4.29335 31.3104 4.63854 31.9108 5.11716 32.3956L9.38716 28.1805ZM9.90656 29.0849L7.71608 20.9826L1.92402 22.5485L4.1145 30.6508L9.90656 29.0849ZM7.71638 20.9837C7.81229 21.339 7.81063 21.7136 7.71158 22.068L1.933 20.4531C1.74168 21.1377 1.73847 21.8611 1.92372 22.5474L7.71638 20.9837ZM7.71158 22.068C7.61252 22.4225 7.41973 22.7437 7.15351 22.9977L3.01085 18.6574C2.49667 19.1482 2.12432 19.7685 1.933 20.4531L7.71158 22.068ZM7.15333 22.9979L13.2853 17.1461L9.14305 12.8055L3.01104 18.6573L7.15333 22.9979ZM10.0638 14.5614L4.73723 19.6449L8.87967 23.9854L14.2062 18.9019L10.0638 14.5614ZM3.9124 22.598L5.81406 29.6327L11.6062 28.0669L9.7045 21.0322L3.9124 22.598ZM7.88647 31.7345L14.7506 33.6944L16.3978 27.9249L9.53374 25.9651L7.88647 31.7345ZM17.5571 33.0609L22.8598 28.3901L18.894 23.8877L13.5913 28.5584L17.5571 33.0609ZM23.7832 25.3948L21.8739 17.9378L16.0614 19.426L17.9707 26.883L23.7832 25.3948ZM19.791 15.7971L12.9584 13.8468L11.3116 19.6164L18.1442 21.5667L19.791 15.7971Z" fill="#BF6260" mask="url(#path-4-inside-1_555_8159)"/>
<path d="M5.74284 22.1157L5.7431 22.1155L5.74284 22.1157ZM5.74284 22.1157L5.73055 22.1227L5.74284 22.1157Z" fill="#BF6260" stroke="#BF6260" stroke-width="3"/>
<path d="M12.8369 24.377C12.8369 24.3769 12.8369 24.3769 12.8368 24.3768L12.8369 24.377Z" fill="#BF6260" stroke="#BF6260" stroke-width="3"/>
</svg>
