<svg width="39" height="24" viewBox="0 0 39 24" fill="none" xmlns="http://www.w3.org/2000/svg">
<path d="M18.6167 9.43102L18.8981 8.57145L18.6167 9.43102ZM21.6647 17.2381C21.6648 17.2381 21.6648 17.2382 21.6649 17.2383L21.6647 17.2381Z" fill="#BF6260" stroke="#BF6260" stroke-width="3"/>
<path d="M27.954 11.4309L27.9537 11.4308L27.9535 11.4307L27.954 11.4309ZM27.954 11.4309L27.9549 11.4311L28.8853 11.2721L27.9549 11.4311L28.4867 11.5519L28.4865 11.5526L28.4865 11.5527L28.4865 11.5529M27.954 11.4309L27.9534 11.4314M28.4865 11.5529L28.1378 11.4734L27.9534 11.4314M28.4865 11.5529L26.1044 22.0341M28.4865 11.5529C28.4543 11.6942 28.3673 11.8169 28.2447 11.8941L27.9534 11.4315M27.9534 11.4314L27.9534 11.4315M27.9534 11.4314L26.1044 22.0341M27.9534 11.4314L27.9533 11.4315L27.8325 11.9646C27.9738 11.9967 28.1221 11.9713 28.2447 11.8941L27.9534 11.4315M27.9534 11.4314L27.9534 11.4315M27.9534 11.4314L27.9533 11.4313L27.9534 11.4314ZM26.1044 22.0341L26.4997 22.1281M26.1044 22.0341L27.4201 11.3101L27.4201 11.3103L25.038 21.7913L24.641 21.7048L25.0372 21.7949L25.037 21.7956L25.5611 21.9147L25.5703 21.9168L25.5794 21.9189L26.4997 22.1281M26.4997 22.1281L28.8828 11.6427L26.0761 22.7168C26.2894 22.5841 26.4416 22.3725 26.4997 22.1281Z" fill="#BF6260" stroke="#BF6260" stroke-width="3"/>
<mask id="path-3-inside-1_555_8160" fill="white">
<path fill-rule="evenodd" clip-rule="evenodd" d="M19.6012 4.61844C19.6822 4.52289 19.7812 4.44423 19.8925 4.38695C20.0039 4.32968 20.1255 4.29491 20.2503 4.28464C20.3751 4.27437 20.5007 4.2888 20.62 4.3271C20.7392 4.36541 20.8497 4.42683 20.9452 4.50787L27.8694 10.3797L34.376 8.60477C34.6199 8.53829 34.8803 8.57143 35.0998 8.69693C35.3194 8.82242 35.48 9.02997 35.5465 9.27393C35.613 9.51789 35.5799 9.77827 35.4544 9.99779C35.3289 10.2173 35.1213 10.378 34.8774 10.4445L27.8865 12.3509C27.7372 12.3917 27.5801 12.3954 27.429 12.3619C27.2779 12.3283 27.1372 12.2585 27.0191 12.1584L19.7118 5.96247C19.6162 5.88151 19.5376 5.78251 19.4803 5.67113C19.423 5.55976 19.3882 5.43819 19.378 5.31337C19.3677 5.18855 19.3821 5.06293 19.4204 4.94369C19.4587 4.82445 19.5202 4.71393 19.6012 4.61844ZM7.2142 5.97581C7.33435 5.86093 7.48245 5.77946 7.64381 5.7395C7.80517 5.69954 7.97417 5.70247 8.13405 5.748L16.0171 7.99853C16.1772 8.04431 16.3225 8.13123 16.4386 8.25064C16.5547 8.37005 16.6374 8.51778 16.6786 8.67913L18.8682 17.2313C18.912 17.4016 18.9078 17.5807 18.8562 17.7488C18.8045 17.9168 18.7074 18.0673 18.5755 18.1836L12.4435 23.5845C12.3238 23.6901 12.1794 23.764 12.0237 23.7993C11.868 23.8346 11.7059 23.8303 11.5523 23.7866L3.6692 21.5351C3.51122 21.4901 3.36756 21.405 3.25216 21.2881C3.13675 21.1712 3.05352 21.0264 3.01053 20.8679L0.820049 12.7655C0.775382 12.6001 0.776156 12.4256 0.822287 12.2606C0.868418 12.0955 0.958201 11.9459 1.08218 11.8276L7.2142 5.97581ZM8.135 7.73163L2.80845 12.8151L4.71011 19.8498L11.5742 21.8096L16.8769 17.1389L14.9676 9.68191L8.135 7.73163Z"/>
</mask>
<path fill-rule="evenodd" clip-rule="evenodd" d="M19.6012 4.61844C19.6822 4.52289 19.7812 4.44423 19.8925 4.38695C20.0039 4.32968 20.1255 4.29491 20.2503 4.28464C20.3751 4.27437 20.5007 4.2888 20.62 4.3271C20.7392 4.36541 20.8497 4.42683 20.9452 4.50787L27.8694 10.3797L34.376 8.60477C34.6199 8.53829 34.8803 8.57143 35.0998 8.69693C35.3194 8.82242 35.48 9.02997 35.5465 9.27393C35.613 9.51789 35.5799 9.77827 35.4544 9.99779C35.3289 10.2173 35.1213 10.378 34.8774 10.4445L27.8865 12.3509C27.7372 12.3917 27.5801 12.3954 27.429 12.3619C27.2779 12.3283 27.1372 12.2585 27.0191 12.1584L19.7118 5.96247C19.6162 5.88151 19.5376 5.78251 19.4803 5.67113C19.423 5.55976 19.3882 5.43819 19.378 5.31337C19.3677 5.18855 19.3821 5.06293 19.4204 4.94369C19.4587 4.82445 19.5202 4.71393 19.6012 4.61844ZM7.2142 5.97581C7.33435 5.86093 7.48245 5.77946 7.64381 5.7395C7.80517 5.69954 7.97417 5.70247 8.13405 5.748L16.0171 7.99853C16.1772 8.04431 16.3225 8.13123 16.4386 8.25064C16.5547 8.37005 16.6374 8.51778 16.6786 8.67913L18.8682 17.2313C18.912 17.4016 18.9078 17.5807 18.8562 17.7488C18.8045 17.9168 18.7074 18.0673 18.5755 18.1836L12.4435 23.5845C12.3238 23.6901 12.1794 23.764 12.0237 23.7993C11.868 23.8346 11.7059 23.8303 11.5523 23.7866L3.6692 21.5351C3.51122 21.4901 3.36756 21.405 3.25216 21.2881C3.13675 21.1712 3.05352 21.0264 3.01053 20.8679L0.820049 12.7655C0.775382 12.6001 0.776156 12.4256 0.822287 12.2606C0.868418 12.0955 0.958201 11.9459 1.08218 11.8276L7.2142 5.97581ZM8.135 7.73163L2.80845 12.8151L4.71011 19.8498L11.5742 21.8096L16.8769 17.1389L14.9676 9.68191L8.135 7.73163Z" fill="#BF6260"/>
<path d="M19.6012 4.61844L21.8886 6.55958L21.8901 6.55779L19.6012 4.61844ZM20.9452 4.50787L19.0041 6.79522L19.0049 6.79592L20.9452 4.50787ZM27.8694 10.3797L25.929 12.6677L27.1343 13.6898L28.6589 13.2739L27.8694 10.3797ZM34.376 8.60477L33.5871 5.71034L33.5865 5.71052L34.376 8.60477ZM34.8774 10.4445L34.0885 7.55005L34.0881 7.55017L34.8774 10.4445ZM27.8865 12.3509L27.0972 9.45659L27.0967 9.45674L27.8865 12.3509ZM27.0191 12.1584L28.9593 9.87019L28.9592 9.87017L27.0191 12.1584ZM19.7118 5.96247L21.6519 3.67428L21.6511 3.6736L19.7118 5.96247ZM7.2142 5.97581L9.28535 8.14615L9.2875 8.14409L7.2142 5.97581ZM8.13405 5.748L8.95761 2.86325L8.95575 2.86272L8.13405 5.748ZM16.0171 7.99853L16.8418 5.11411L16.8407 5.11379L16.0171 7.99853ZM16.6786 8.67913L13.772 9.42155L13.7724 9.42318L16.6786 8.67913ZM18.8682 17.2313L15.9619 17.9754L15.9627 17.9785L18.8682 17.2313ZM18.5755 18.1836L20.5584 20.4349L20.56 20.4335L18.5755 18.1836ZM12.4435 23.5845L10.4607 21.3332L10.4588 21.3348L12.4435 23.5845ZM11.5523 23.7866L10.7284 26.6712L10.732 26.6723L11.5523 23.7866ZM3.6692 21.5351L4.49309 18.6505L4.49166 18.65L3.6692 21.5351ZM3.01053 20.8679L0.114501 21.6508L0.115072 21.6529L3.01053 20.8679ZM0.820049 12.7655L-2.07628 13.5474L-2.07598 13.5485L0.820049 12.7655ZM1.08218 11.8276L-0.988964 9.65725L-0.989147 9.65743L1.08218 11.8276ZM8.135 7.73163L8.95842 4.84685L7.30652 4.37534L6.06378 5.56137L8.135 7.73163ZM2.80845 12.8151L0.737226 10.6449L-0.553033 11.8762L-0.0875998 13.598L2.80845 12.8151ZM4.71011 19.8498L1.81406 20.6327L2.25643 22.2691L3.88647 22.7345L4.71011 19.8498ZM11.5742 21.8096L10.7506 24.6944L12.3269 25.1444L13.5571 24.0609L11.5742 21.8096ZM16.8769 17.1389L18.8598 19.3901L20.239 18.1753L19.7832 16.3948L16.8769 17.1389ZM14.9676 9.68191L17.8739 8.93779L17.4468 7.26973L15.791 6.79712L14.9676 9.68191ZM21.8901 6.55779C21.7162 6.76297 21.5036 6.93188 21.2645 7.05486L18.5206 1.71904C18.0587 1.95657 17.6481 2.2828 17.3123 2.67908L21.8901 6.55779ZM21.2645 7.05486C21.0253 7.17785 20.7643 7.25249 20.4963 7.27454L20.0043 1.29474C19.4867 1.33733 18.9825 1.48151 18.5206 1.71904L21.2645 7.05486ZM20.4963 7.27454C20.2283 7.29659 19.9585 7.26561 19.7025 7.18336L21.5375 1.47085C21.0429 1.312 20.522 1.25216 20.0043 1.29474L20.4963 7.27454ZM19.7025 7.18336C19.4464 7.10112 19.2091 6.96922 19.0041 6.79522L22.8864 2.22051C22.4904 1.88445 22.032 1.6297 21.5375 1.47085L19.7025 7.18336ZM19.0049 6.79592L25.929 12.6677L29.8097 8.0916L22.8855 2.21981L19.0049 6.79592ZM28.6589 13.2739L35.1655 11.499L33.5865 5.71052L27.0799 7.4854L28.6589 13.2739ZM35.1648 11.4992C34.6411 11.6419 34.0822 11.5708 33.611 11.3014L36.5887 6.09246C35.6785 5.5721 34.5988 5.43464 33.5871 5.71034L35.1648 11.4992ZM33.611 11.3014C33.1398 11.032 32.7948 10.5865 32.6521 10.0628L38.441 8.48509C38.1653 7.47346 37.499 6.61281 36.5887 6.09246L33.611 11.3014ZM32.6521 10.0628C32.5094 9.53909 32.5805 8.98015 32.8499 8.50892L38.0589 11.4867C38.5792 10.5764 38.7167 9.49669 38.441 8.48509L32.6521 10.0628ZM32.8499 8.50892C33.1193 8.03768 33.5648 7.69277 34.0885 7.55005L35.6662 13.3389C36.6778 13.0632 37.5385 12.3969 38.0589 11.4867L32.8499 8.50892ZM34.0881 7.55017L27.0972 9.45659L28.6758 15.2452L35.6667 13.3388L34.0881 7.55017ZM27.0967 9.45674C27.4174 9.36922 27.7546 9.36113 28.0791 9.43317L26.7789 15.2906C27.4057 15.4297 28.0569 15.4141 28.6763 15.2451L27.0967 9.45674ZM28.0791 9.43317C28.4036 9.5052 28.7057 9.6552 28.9593 9.87019L25.0789 14.4465C25.5686 14.8618 26.1521 15.1515 26.7789 15.2906L28.0791 9.43317ZM28.9592 9.87017L21.6519 3.67428L17.7716 8.25066L25.0789 14.4465L28.9592 9.87017ZM21.6511 3.6736C21.8563 3.84745 22.0252 4.06002 22.1482 4.29918L16.8124 7.04309C17.0499 7.505 17.3761 7.91557 17.7724 8.25133L21.6511 3.6736ZM22.1482 4.29918C22.2712 4.53833 22.3458 4.79937 22.3679 5.06739L16.3881 5.55935C16.4307 6.077 16.5748 6.58119 16.8124 7.04309L22.1482 4.29918ZM22.3679 5.06739C22.3899 5.3354 22.3589 5.60513 22.2767 5.86118L16.5642 4.0262C16.4053 4.52073 16.3455 5.0417 16.3881 5.55935L22.3679 5.06739ZM22.2767 5.86118C22.1945 6.11721 22.0626 6.35453 21.8885 6.55957L17.3138 2.6773C16.9778 3.07333 16.723 3.53169 16.5642 4.0262L22.2767 5.86118ZM9.2875 8.14409C9.02951 8.39078 8.7115 8.56571 8.36502 8.65152L6.92259 2.82748C6.2534 2.99322 5.63918 3.33108 5.1409 3.80754L9.2875 8.14409ZM8.36502 8.65152C8.01855 8.73733 7.65565 8.73104 7.31235 8.63327L8.95575 2.86272C8.29269 2.67389 7.59179 2.66174 6.92259 2.82748L8.36502 8.65152ZM7.31048 8.63274L15.1936 10.8833L16.8407 5.11379L8.95761 2.86325L7.31048 8.63274ZM15.1924 10.883C14.8486 10.7847 14.5366 10.598 14.2874 10.3416L18.5898 6.15966C18.1085 5.66444 17.5058 5.30395 16.8418 5.11411L15.1924 10.883ZM14.2874 10.3416C14.0382 10.0852 13.8604 9.76799 13.772 9.42155L19.5853 7.9367C19.4144 7.26757 19.0712 6.65489 18.5898 6.15966L14.2874 10.3416ZM13.7724 9.42318L15.9619 17.9754L21.7744 16.4873L19.5849 7.93507L13.7724 9.42318ZM15.9627 17.9785C15.8687 17.6129 15.8776 17.2284 15.9885 16.8675L21.7238 18.63C21.938 17.933 21.9552 17.1904 21.7736 16.4842L15.9627 17.9785ZM15.9885 16.8675C16.0994 16.5066 16.3079 16.1835 16.5911 15.9338L20.56 20.4335C21.1068 19.9511 21.5096 19.327 21.7238 18.63L15.9885 16.8675ZM16.5927 15.9323L10.4607 21.3332L14.4264 25.8358L20.5584 20.4349L16.5927 15.9323ZM10.4588 21.3348C10.7159 21.108 11.0259 20.9494 11.3603 20.8736L12.6871 26.7251C13.3329 26.5786 13.9316 26.2723 14.4282 25.8342L10.4588 21.3348ZM11.3603 20.8736C11.6947 20.7978 12.0428 20.8072 12.3726 20.9009L10.732 26.6723C11.369 26.8533 12.0412 26.8715 12.6871 26.7251L11.3603 20.8736ZM12.3762 20.9019L4.49309 18.6505L2.84531 24.4198L10.7284 26.6712L12.3762 20.9019ZM4.49166 18.65C4.83088 18.7467 5.13935 18.9295 5.38716 19.1805L1.11716 23.3956C1.59577 23.8805 2.19157 24.2334 2.84674 24.4202L4.49166 18.65ZM5.38716 19.1805C5.63497 19.4315 5.81369 19.7424 5.90599 20.0828L0.115072 21.6529C0.293353 22.3104 0.638539 22.9108 1.11716 23.3956L5.38716 19.1805ZM5.90656 20.0849L3.71608 11.9826L-2.07598 13.5485L0.114501 21.6508L5.90656 20.0849ZM3.71638 11.9837C3.81229 12.339 3.81063 12.7136 3.71158 13.068L-2.067 11.4531C-2.25832 12.1377 -2.26153 12.8611 -2.07628 13.5474L3.71638 11.9837ZM3.71158 13.068C3.61252 13.4225 3.41973 13.7437 3.15351 13.9977L-0.989147 9.65743C-1.50333 10.1482 -1.87568 10.7685 -2.067 11.4531L3.71158 13.068ZM3.15333 13.9979L9.28535 8.14615L5.14305 3.80548L-0.988964 9.65725L3.15333 13.9979ZM6.06378 5.56137L0.737226 10.6449L4.87967 14.9854L10.2062 9.90189L6.06378 5.56137ZM-0.0875998 13.598L1.81406 20.6327L7.60616 19.0669L5.7045 12.0322L-0.0875998 13.598ZM3.88647 22.7345L10.7506 24.6944L12.3978 18.9249L5.53374 16.9651L3.88647 22.7345ZM13.5571 24.0609L18.8598 19.3901L14.894 14.8877L9.59127 19.5584L13.5571 24.0609ZM19.7832 16.3948L17.8739 8.93779L12.0614 10.426L13.9707 17.883L19.7832 16.3948ZM15.791 6.79712L8.95842 4.84685L7.31158 10.6164L14.1442 12.5667L15.791 6.79712Z" fill="#BF6260" mask="url(#path-3-inside-1_555_8160)"/>
<path d="M1.74284 13.1157L1.7431 13.1155L1.74284 13.1157ZM1.74284 13.1157L1.73055 13.1227L1.74284 13.1157Z" fill="#BF6260" stroke="#BF6260" stroke-width="3"/>
<path d="M8.83688 15.377C8.83686 15.377 8.83685 15.3769 8.83684 15.3769L8.83688 15.377Z" fill="#BF6260" stroke="#BF6260" stroke-width="3"/>
</svg>
