<svg width="42" height="42" viewBox="0 0 42 42" fill="none" xmlns="http://www.w3.org/2000/svg">
<rect x="1.06836" y="0.917358" width="39.666" height="39.666" stroke="#F6F2F2"/>
<path fill-rule="evenodd" clip-rule="evenodd" d="M18.8542 8.9631L18.8491 8.96819L18.8381 8.76994L18.8313 8.63608C18.8008 8.07693 18.7534 7.22972 18.4094 6.56042C18.2122 6.1593 17.8903 5.83291 17.4919 5.63019C17.0556 5.4133 16.5574 5.36417 16.0254 5.43703C15.5535 5.50226 15.1358 5.69119 14.8054 6.01143C14.4818 6.3249 14.2886 6.718 14.1835 7.11958C13.9777 7.89732 14.0649 8.82755 14.2767 9.72305C14.7063 11.5327 15.7492 13.6202 16.9226 15.0401C17.3741 15.5866 17.5122 16.4101 17.5122 16.765V18.6323L19.2066 19.0559V17.9418C19.9547 17.6639 20.4597 17.5368 20.9332 17.5267C21.3924 17.5182 21.8821 17.6182 22.5955 17.913V19.0559L24.2899 18.6323V16.765C24.2899 16.4101 24.4288 15.5874 24.8795 15.0401C26.0444 13.6295 27.1399 11.5513 27.6245 9.74677C27.8634 8.85636 27.9829 7.92697 27.8033 7.14584C27.7109 6.74257 27.5296 6.34184 27.2085 6.02075C26.8806 5.69373 26.4604 5.50226 25.9885 5.43703C25.4565 5.36417 24.9575 5.4133 24.522 5.63019C24.0815 5.85046 23.7909 6.19612 23.6036 6.56042C23.2597 7.22972 23.2131 8.07693 23.1826 8.63608L23.175 8.76994L23.1639 8.96819L23.1589 8.9631C22.7547 8.60304 22.2193 8.4802 21.8584 8.42767C21.6113 8.39365 21.3623 8.37526 21.1129 8.3726H20.9011C20.6516 8.37526 20.4026 8.3945 20.1555 8.42852C19.7938 8.48104 19.2592 8.60389 18.8542 8.96395M19.981 10.2297L20.0064 10.2136L20.0538 10.1916V13.9726H21.7483V10.128C21.8149 10.1421 21.8725 10.1579 21.9211 10.1755C21.9598 10.1893 21.997 10.2072 22.0321 10.2288C22.3904 10.5482 22.7547 10.8176 23.1199 10.9405C23.3164 11.0057 23.5664 11.0472 23.8349 10.9812C24.0895 10.9183 24.3147 10.77 24.4729 10.5609C24.7143 10.2475 24.7796 9.84759 24.8101 9.60698C24.8406 9.36976 24.855 9.09696 24.8677 8.84873L24.8745 8.72843C24.9083 8.09641 24.9609 7.62706 25.1117 7.33477C25.171 7.21786 25.2269 7.17211 25.276 7.14839C25.3303 7.12043 25.4658 7.07553 25.7572 7.11534C25.9097 7.13653 25.9758 7.18482 26.0114 7.21955C26.0529 7.26191 26.1114 7.34748 26.152 7.52455C26.2393 7.90579 26.2003 8.51578 25.9877 9.30792C25.5692 10.8693 24.5898 12.7306 23.5731 13.9616C23.0055 14.6479 22.7505 15.4908 22.6505 16.1245C22.0456 15.9229 21.4831 15.8212 20.8985 15.8331C20.3224 15.845 19.7599 15.9678 19.1575 16.1635C19.0618 15.5256 18.8076 14.6623 18.229 13.9608C17.2208 12.7408 16.2948 10.888 15.9263 9.33249C15.7399 8.54458 15.7204 7.93459 15.822 7.55166C15.8695 7.37205 15.933 7.27801 15.9839 7.22887C16.0288 7.18651 16.1025 7.13653 16.2567 7.11534C16.5473 7.07553 16.6828 7.12043 16.737 7.14754C16.7862 7.17211 16.8421 7.21786 16.9022 7.33477C17.053 7.62706 17.1056 8.09641 17.1395 8.72843L17.1462 8.84873C17.1589 9.09696 17.1733 9.36976 17.203 9.60698C17.2343 9.84759 17.2987 10.2475 17.5402 10.5609C17.6834 10.7473 17.8943 10.9117 18.1781 10.9812C18.4475 11.0472 18.6975 11.0057 18.8932 10.9396C19.2592 10.8176 19.6226 10.5482 19.9818 10.228M20.9011 36C21.7998 36 22.6618 35.643 23.2973 35.0075C23.9328 34.3719 24.2899 33.51 24.2899 32.6112V30.7753L22.5955 28.9403V30.3365C21.8474 30.6143 21.3424 30.7414 20.8689 30.7516C20.4097 30.7601 19.92 30.6601 19.2066 30.3653V28.9403L17.5122 30.7753V32.6112C17.5122 33.51 17.8693 34.3719 18.5048 35.0075C19.1403 35.643 20.0023 36 20.9011 36ZM20.9011 34.3056C20.4517 34.3056 20.0207 34.1271 19.7029 33.8093C19.3852 33.4916 19.2066 33.0606 19.2066 32.6112V32.1715C19.7912 32.3613 20.3377 32.457 20.9036 32.4452C21.4644 32.4333 22.0117 32.3172 22.5955 32.1308V32.6112C22.5955 33.0606 22.417 33.4916 22.0992 33.8093C21.7814 34.1271 21.3504 34.3056 20.9011 34.3056Z" fill="#BF6260"/>
<path d="M9.88822 16.5144C10.1129 16.5144 10.3284 16.4251 10.4873 16.2662C10.6462 16.1073 10.7354 15.8918 10.7354 15.6672C10.7354 15.4425 10.6462 15.227 10.4873 15.0681C10.3284 14.9092 10.1129 14.8199 9.88822 14.8199C9.66353 14.8199 9.44804 14.9092 9.28916 15.0681C9.13027 15.227 9.04102 15.4425 9.04102 15.6672C9.04102 15.8918 9.13027 16.1073 9.28916 16.2662C9.44804 16.4251 9.66353 16.5144 9.88822 16.5144ZM12.4298 19.056C12.4298 19.2807 12.3406 19.4962 12.1817 19.6551C12.0228 19.8139 11.8073 19.9032 11.5826 19.9032C11.3579 19.9032 11.1425 19.8139 10.9836 19.6551C10.8247 19.4962 10.7354 19.2807 10.7354 19.056C10.7354 18.8313 10.8247 18.6158 10.9836 18.4569C11.1425 18.298 11.3579 18.2088 11.5826 18.2088C11.8073 18.2088 12.0228 18.298 12.1817 18.4569C12.3406 18.6158 12.4298 18.8313 12.4298 19.056ZM9.88822 23.292C10.1129 23.292 10.3284 23.2028 10.4873 23.0439C10.6462 22.885 10.7354 22.6695 10.7354 22.4448C10.7354 22.2201 10.6462 22.0046 10.4873 21.8457C10.3284 21.6869 10.1129 21.5976 9.88822 21.5976C9.66353 21.5976 9.44804 21.6869 9.28916 21.8457C9.13027 22.0046 9.04102 22.2201 9.04102 22.4448C9.04102 22.6695 9.13027 22.885 9.28916 23.0439C9.44804 23.2028 9.66353 23.292 9.88822 23.292ZM14.9715 26.6809C14.9715 26.9055 14.8822 27.121 14.7233 27.2799C14.5644 27.4388 14.349 27.5281 14.1243 27.5281C13.8996 27.5281 13.6841 27.4388 13.5252 27.2799C13.3663 27.121 13.2771 26.9055 13.2771 26.6809C13.2771 26.4562 13.3663 26.2407 13.5252 26.0818C13.6841 25.9229 13.8996 25.8336 14.1243 25.8336C14.349 25.8336 14.5644 25.9229 14.7233 26.0818C14.8822 26.2407 14.9715 26.4562 14.9715 26.6809ZM10.7354 27.5281C10.9601 27.5281 11.1756 27.4388 11.3345 27.2799C11.4934 27.121 11.5826 26.9055 11.5826 26.6809C11.5826 26.4562 11.4934 26.2407 11.3345 26.0818C11.1756 25.9229 10.9601 25.8336 10.7354 25.8336C10.5107 25.8336 10.2952 25.9229 10.1364 26.0818C9.97748 26.2407 9.88822 26.4562 9.88822 26.6809C9.88822 26.9055 9.97748 27.121 10.1364 27.2799C10.2952 27.4388 10.5107 27.5281 10.7354 27.5281ZM14.9715 23.292C14.9715 23.5167 14.8822 23.7322 14.7233 23.8911C14.5644 24.05 14.349 24.1392 14.1243 24.1392C13.8996 24.1392 13.6841 24.05 13.5252 23.8911C13.3663 23.7322 13.2771 23.5167 13.2771 23.292C13.2771 23.0673 13.3663 22.8518 13.5252 22.693C13.6841 22.5341 13.8996 22.4448 14.1243 22.4448C14.349 22.4448 14.5644 22.5341 14.7233 22.693C14.8822 22.8518 14.9715 23.0673 14.9715 23.292ZM17.5131 24.9864C17.7378 24.9864 17.9533 24.8972 18.1122 24.7383C18.271 24.5794 18.3603 24.3639 18.3603 24.1392C18.3603 23.9145 18.271 23.699 18.1122 23.5402C17.9533 23.3813 17.7378 23.292 17.5131 23.292C17.2884 23.292 17.0729 23.3813 16.914 23.5402C16.7551 23.699 16.6659 23.9145 16.6659 24.1392C16.6659 24.3639 16.7551 24.5794 16.914 24.7383C17.0729 24.8972 17.2884 24.9864 17.5131 24.9864ZM31.0684 15.6672C31.0684 15.8918 31.1577 16.1073 31.3165 16.2662C31.4754 16.4251 31.6909 16.5144 31.9156 16.5144C32.1403 16.5144 32.3558 16.4251 32.5147 16.2662C32.6736 16.1073 32.7628 15.8918 32.7628 15.6672C32.7628 15.4425 32.6736 15.227 32.5147 15.0681C32.3558 14.9092 32.1403 14.8199 31.9156 14.8199C31.6909 14.8199 31.4754 14.9092 31.3165 15.0681C31.1577 15.227 31.0684 15.4425 31.0684 15.6672ZM30.2212 19.9032C29.9965 19.9032 29.781 19.8139 29.6221 19.6551C29.4633 19.4962 29.374 19.2807 29.374 19.056C29.374 18.8313 29.4633 18.6158 29.6221 18.4569C29.781 18.298 29.9965 18.2088 30.2212 18.2088C30.4459 18.2088 30.6614 18.298 30.8203 18.4569C30.9792 18.6158 31.0684 18.8313 31.0684 19.056C31.0684 19.2807 30.9792 19.4962 30.8203 19.6551C30.6614 19.8139 30.4459 19.9032 30.2212 19.9032ZM31.0684 22.4448C31.0684 22.6695 31.1577 22.885 31.3165 23.0439C31.4754 23.2028 31.6909 23.292 31.9156 23.292C32.1403 23.292 32.3558 23.2028 32.5147 23.0439C32.6736 22.885 32.7628 22.6695 32.7628 22.4448C32.7628 22.2201 32.6736 22.0046 32.5147 21.8457C32.3558 21.6869 32.1403 21.5976 31.9156 21.5976C31.6909 21.5976 31.4754 21.6869 31.3165 21.8457C31.1577 22.0046 31.0684 22.2201 31.0684 22.4448ZM27.6796 27.5281C27.4549 27.5281 27.2394 27.4388 27.0805 27.2799C26.9216 27.121 26.8324 26.9055 26.8324 26.6809C26.8324 26.4562 26.9216 26.2407 27.0805 26.0818C27.2394 25.9229 27.4549 25.8336 27.6796 25.8336C27.9043 25.8336 28.1198 25.9229 28.2786 26.0818C28.4375 26.2407 28.5268 26.4562 28.5268 26.6809C28.5268 26.9055 28.4375 27.121 28.2786 27.2799C28.1198 27.4388 27.9043 27.5281 27.6796 27.5281ZM30.2212 26.6809C30.2212 26.9055 30.3105 27.121 30.4693 27.2799C30.6282 27.4388 30.8437 27.5281 31.0684 27.5281C31.2931 27.5281 31.5086 27.4388 31.6675 27.2799C31.8264 27.121 31.9156 26.9055 31.9156 26.6809C31.9156 26.4562 31.8264 26.2407 31.6675 26.0818C31.5086 25.9229 31.2931 25.8336 31.0684 25.8336C30.8437 25.8336 30.6282 25.9229 30.4693 26.0818C30.3105 26.2407 30.2212 26.4562 30.2212 26.6809ZM27.6796 24.1392C27.4549 24.1392 27.2394 24.05 27.0805 23.8911C26.9216 23.7322 26.8324 23.5167 26.8324 23.292C26.8324 23.0673 26.9216 22.8518 27.0805 22.693C27.2394 22.5341 27.4549 22.4448 27.6796 22.4448C27.9043 22.4448 28.1198 22.5341 28.2786 22.693C28.4375 22.8518 28.5268 23.0673 28.5268 23.292C28.5268 23.5167 28.4375 23.7322 28.2786 23.8911C28.1198 24.05 27.9043 24.1392 27.6796 24.1392ZM23.4435 24.1392C23.4435 24.3639 23.5328 24.5794 23.6917 24.7383C23.8506 24.8972 24.0661 24.9864 24.2907 24.9864C24.5154 24.9864 24.7309 24.8972 24.8898 24.7383C25.0487 24.5794 25.138 24.3639 25.138 24.1392C25.138 23.9145 25.0487 23.699 24.8898 23.5402C24.7309 23.3813 24.5154 23.292 24.2907 23.292C24.0661 23.292 23.8506 23.3813 23.6917 23.5402C23.5328 23.699 23.4435 23.9145 23.4435 24.1392ZM20.9019 24.9864C21.1266 24.9864 21.3421 24.8972 21.501 24.7383C21.6599 24.5794 21.7491 24.3639 21.7491 24.1392C21.7491 23.9145 21.6599 23.699 21.501 23.5402C21.3421 23.3813 21.1266 23.292 20.9019 23.292C20.6772 23.292 20.4617 23.3813 20.3029 23.5402C20.144 23.699 20.0547 23.9145 20.0547 24.1392C20.0547 24.3639 20.144 24.5794 20.3029 24.7383C20.4617 24.8972 20.6772 24.9864 20.9019 24.9864Z" fill="#BF6260"/>
<path fill-rule="evenodd" clip-rule="evenodd" d="M28.7184 12.8924C29.231 11.6165 29.9214 10.6541 30.7619 10.1229C31.6472 9.56375 32.6495 9.52478 33.5407 10.0382C34.3811 10.5211 35.0267 11.4361 35.4605 12.5976C35.8985 13.7752 36.1518 15.2849 36.1518 17.092V25.7225C36.1518 26.4427 36.0129 28.1083 35.2055 29.6265C34.3667 31.2048 32.8011 32.6112 30.0909 32.6112C28.7396 32.6112 27.7306 32.2299 26.9122 31.6361C26.1793 31.1057 25.6193 30.4144 25.133 29.8146L25.0348 29.6934C24.501 29.0377 24.0283 28.4836 23.4107 28.0752C22.8176 27.683 22.0492 27.4009 20.9021 27.4009C19.755 27.4009 18.9865 27.683 18.3943 28.0752C17.7759 28.4827 17.3031 29.0377 16.7694 29.6934L16.6711 29.8154C16.1848 30.4144 15.6248 31.1049 14.892 31.6361C14.0736 32.2291 13.0646 32.6112 11.7133 32.6112C9.00305 32.6112 7.43741 31.204 6.59867 29.6265C5.79129 28.1083 5.65234 26.4418 5.65234 25.7234V17.092C5.65234 15.2849 5.90566 13.7744 6.34366 12.5985C6.77744 11.4352 7.42301 10.5211 8.26259 10.0382C9.1547 9.52478 10.1569 9.56375 11.0414 10.1229C11.8819 10.6541 12.5732 11.6165 13.0857 12.8924C13.2162 13.2169 13.3433 13.5668 13.4763 13.9328C13.916 15.1384 14.4192 16.521 15.3037 17.7579C16.4 19.2897 18.0521 20.5283 20.9021 20.5283C23.7521 20.5283 25.4041 19.2897 26.5004 17.7579C27.3849 16.521 27.8881 15.1384 28.3278 13.9328C28.4609 13.5668 28.5888 13.2169 28.7184 12.8924ZM13.9262 18.7432C15.2936 20.6554 17.4302 22.2227 20.9021 22.2227C24.3739 22.2227 26.5106 20.6554 27.878 18.7432C28.9141 17.2945 29.5283 15.6018 29.9706 14.3818C30.0883 14.0582 30.1934 13.7676 30.2908 13.5236C30.7314 12.4282 31.2405 11.825 31.6667 11.5564C32.0479 11.3158 32.3767 11.3226 32.6961 11.5064C33.0688 11.7207 33.5161 12.2333 33.8728 13.1898C34.2236 14.1319 34.4574 15.4332 34.4574 17.092V25.7225C34.4574 26.2986 34.3354 27.6525 33.7093 28.8318C33.1137 29.951 32.0734 30.9168 30.0917 30.9168C29.0963 30.9168 28.4354 30.6474 27.9059 30.2644C27.3603 29.8688 26.9308 29.3401 26.4072 28.6954L26.3496 28.6242C25.8244 27.9778 25.2059 27.2297 24.3443 26.6612C23.4589 26.0767 22.3618 25.7064 20.9021 25.7064C19.4423 25.7064 18.3452 26.0758 17.4599 26.6612C16.5991 27.2297 15.9806 27.9778 15.4545 28.6242L15.3969 28.6954C14.8733 29.3393 14.4438 29.8688 13.8974 30.2644C13.3687 30.6474 12.7079 30.9168 11.7133 30.9168C9.7308 30.9168 8.69043 29.951 8.09484 28.8309C7.46791 27.6533 7.34676 26.2978 7.34676 25.7225V17.092C7.34676 15.4332 7.58059 14.1319 7.93133 13.1898C8.28801 12.2333 8.73618 11.7207 9.1081 11.5064C9.4275 11.3226 9.75622 11.3158 10.1375 11.5564C10.5628 11.825 11.0728 12.429 11.5133 13.5236C11.6108 13.7676 11.7167 14.0573 11.8336 14.381C12.2758 15.601 12.89 17.2945 13.9262 18.7432Z" fill="#BF6260"/>
</svg>
